<svg xmlns="http://www.w3.org/2000/svg" xmlns:xlink="http://www.w3.org/1999/xlink" viewBox="0 0 56.33 56.34"><defs><style>.cls-1{fill:none;}.cls-2{isolation:isolate;}.cls-3{mix-blend-mode:multiply;}.cls-110,.cls-4{fill:#fff;}.cls-4{opacity:0;}.cls-5{fill:#fdfdfd;opacity:0.01;}.cls-6{fill:#fbfbfb;opacity:0.02;}.cls-7{fill:#f9f9f9;opacity:0.03;}.cls-8{fill:#f7f7f7;opacity:0.04;}.cls-9{fill:#f5f5f5;opacity:0.05;}.cls-10{fill:#f3f3f3;opacity:0.06;}.cls-11{fill:#f2f1f1;opacity:0.07;}.cls-12{fill:#f0f0ef;opacity:0.08;}.cls-13{fill:#eee;opacity:0.09;}.cls-14{fill:#ececec;opacity:0.1;}.cls-15{fill:#eaeaea;opacity:0.11;}.cls-16{fill:#e8e8e8;opacity:0.12;}.cls-17{fill:#e6e6e6;opacity:0.13;}.cls-18{fill:#e4e4e4;opacity:0.14;}.cls-19{fill:#e2e2e2;opacity:0.15;}.cls-20{fill:#e0e0e0;opacity:0.16;}.cls-21{fill:#dedede;opacity:0.17;}.cls-22{fill:#dcdcdc;opacity:0.18;}.cls-23{fill:#dadada;opacity:0.19;}.cls-24{fill:#d8d8d8;opacity:0.2;}.cls-25{fill:#d7d6d6;opacity:0.21;}.cls-26{fill:#d5d5d4;opacity:0.22;}.cls-27{fill:#d3d3d2;opacity:0.23;}.cls-28{fill:#d1d1d0;opacity:0.24;}.cls-29{fill:#cfcfcf;opacity:0.25;}.cls-30{fill:#cdcdcd;opacity:0.26;}.cls-31{fill:#cbcbcb;opacity:0.27;}.cls-32{fill:#c9c9c9;opacity:0.28;}.cls-33{fill:#c7c7c7;opacity:0.29;}.cls-34{fill:#c5c5c5;opacity:0.3;}.cls-35{fill:#c3c3c3;opacity:0.31;}.cls-36{fill:#c1c1c1;opacity:0.32;}.cls-37{fill:#bfbfbf;opacity:0.33;}.cls-38{fill:#bdbdbd;opacity:0.34;}.cls-39{fill:#bcbbbb;opacity:0.35;}.cls-40{fill:#babab9;opacity:0.36;}.cls-41{fill:#b8b8b7;opacity:0.37;}.cls-42{fill:#b6b6b5;opacity:0.38;}.cls-43{fill:#b4b4b3;opacity:0.39;}.cls-44{fill:#b2b2b1;opacity:0.4;}.cls-45{fill:#b0b0b0;opacity:0.41;}.cls-46{fill:#aeaeae;opacity:0.42;}.cls-47{fill:#acacac;opacity:0.43;}.cls-48{fill:#aaa;opacity:0.44;}.cls-49{fill:#a8a8a8;opacity:0.45;}.cls-50{fill:#a6a6a6;opacity:0.46;}.cls-51{fill:#a4a4a4;opacity:0.47;}.cls-52{fill:#a3a2a2;opacity:0.48;}.cls-53{fill:#a1a0a0;opacity:0.49;}.cls-54{fill:#9f9f9e;opacity:0.5;}.cls-55{fill:#9d9d9c;opacity:0.5;}.cls-56{fill:#9b9b9a;opacity:0.51;}.cls-57{fill:#999998;opacity:0.52;}.cls-58{fill:#979796;opacity:0.53;}.cls-59{fill:#959594;opacity:0.54;}.cls-60{fill:#939392;opacity:0.55;}.cls-61{fill:#919191;opacity:0.56;}.cls-62{fill:#8f8f8f;opacity:0.57;}.cls-63{fill:#8d8d8d;opacity:0.58;}.cls-64{fill:#8b8b8b;opacity:0.59;}.cls-65{fill:#898989;opacity:0.6;}.cls-66{fill:#888787;opacity:0.61;}.cls-67{fill:#868585;opacity:0.62;}.cls-68{fill:#848383;opacity:0.63;}.cls-69{fill:#828281;opacity:0.64;}.cls-70{fill:#80807f;opacity:0.65;}.cls-71{fill:#7e7e7d;opacity:0.66;}.cls-72{fill:#7c7c7b;opacity:0.67;}.cls-73{fill:#7a7a79;opacity:0.68;}.cls-74{fill:#787877;opacity:0.69;}.cls-75{fill:#767675;opacity:0.7;}.cls-76{fill:#747473;opacity:0.71;}.cls-77{fill:#727272;opacity:0.72;}.cls-78{fill:#707070;opacity:0.73;}.cls-79{fill:#6e6e6e;opacity:0.74;}.cls-80{fill:#6d6c6c;opacity:0.75;}.cls-81{fill:#6b6a6a;opacity:0.76;}.cls-82{fill:#696868;opacity:0.77;}.cls-83{fill:#676766;opacity:0.78;}.cls-84{fill:#656564;opacity:0.79;}.cls-85{fill:#636362;opacity:0.8;}.cls-86{fill:#616160;opacity:0.81;}.cls-87{fill:#5f5f5e;opacity:0.82;}.cls-88{fill:#5d5d5c;opacity:0.83;}.cls-89{fill:#5b5b5a;opacity:0.84;}.cls-90{fill:#595958;opacity:0.85;}.cls-91{fill:#575756;opacity:0.86;}.cls-92{fill:#555554;opacity:0.87;}.cls-93{fill:#535352;opacity:0.88;}.cls-94{fill:#525151;opacity:0.89;}.cls-95{fill:#504f4f;opacity:0.9;}.cls-96{fill:#4e4d4d;opacity:0.91;}.cls-97{fill:#4c4c4b;opacity:0.92;}.cls-98{fill:#4a4a49;opacity:0.93;}.cls-99{fill:#484847;opacity:0.94;}.cls-100{fill:#464645;opacity:0.95;}.cls-101{fill:#444443;opacity:0.96;}.cls-102{fill:#424241;opacity:0.97;}.cls-103{fill:#40403f;opacity:0.98;}.cls-104{fill:#3e3e3d;opacity:0.99;}.cls-105{fill:#1a1a1a;}.cls-106{fill:#333;}.cls-107{clip-path:url(#clip-path);}.cls-108{fill:#4f4f4f;}.cls-109{fill:#858585;}</style><clipPath id="clip-path" transform="translate(-935.12 -346.09)"><path id="SVGID" class="cls-1" d="M985,347.66a4.85,4.85,0,0,1,4.84,4.83L990,391.6a4.82,4.82,0,0,1-4.81,4.83L946,396.38a4.85,4.85,0,0,1-4.83-4.83l-.08-39.06a4.8,4.8,0,0,1,4.82-4.82Z"/></clipPath></defs><g class="cls-2"><g id="Capa_1" data-name="Capa 1"><g class="cls-3"><path class="cls-4" d="M985,347.66a4.85,4.85,0,0,1,4.84,4.83L990,397.6a4.82,4.82,0,0,1-4.81,4.83L940,402.38a4.85,4.85,0,0,1-4.83-4.83l-.08-45.06a4.8,4.8,0,0,1,4.82-4.82Z" transform="translate(-935.12 -346.09)"/><path class="cls-5" d="M985,347.66a4.85,4.85,0,0,1,4.84,4.83l.07,45.05a4.82,4.82,0,0,1-4.81,4.83l-45-.05a4.85,4.85,0,0,1-4.83-4.83l-.08-45a4.8,4.8,0,0,1,4.82-4.82Z" transform="translate(-935.12 -346.09)"/><path class="cls-6" d="M985,347.66a4.85,4.85,0,0,1,4.84,4.83l.07,45a4.81,4.81,0,0,1-4.81,4.82l-45-.05a4.83,4.83,0,0,1-4.83-4.83l-.08-44.94a4.8,4.8,0,0,1,4.82-4.82Z" transform="translate(-935.12 -346.09)"/><path class="cls-7" d="M985,347.66a4.85,4.85,0,0,1,4.84,4.83l.07,44.94a4.81,4.81,0,0,1-4.81,4.82l-44.93-.05a4.83,4.83,0,0,1-4.83-4.83l-.08-44.88a4.8,4.8,0,0,1,4.82-4.82Z" transform="translate(-935.12 -346.09)"/><path class="cls-8" d="M985,347.66a4.85,4.85,0,0,1,4.84,4.83l.07,44.88a4.81,4.81,0,0,1-4.81,4.82l-44.87-.05a4.83,4.83,0,0,1-4.83-4.83l-.08-44.82a4.8,4.8,0,0,1,4.82-4.82Z" transform="translate(-935.12 -346.09)"/><path class="cls-9" d="M985,347.66a4.85,4.85,0,0,1,4.84,4.83l.07,44.82a4.81,4.81,0,0,1-4.81,4.82l-44.81-.05a4.83,4.83,0,0,1-4.83-4.83l-.08-44.76a4.8,4.8,0,0,1,4.82-4.82Z" transform="translate(-935.12 -346.09)"/><path class="cls-10" d="M985,347.66a4.85,4.85,0,0,1,4.84,4.83l.07,44.76a4.81,4.81,0,0,1-4.81,4.82l-44.75,0a4.85,4.85,0,0,1-4.83-4.84l-.08-44.7a4.8,4.8,0,0,1,4.82-4.82Z" transform="translate(-935.12 -346.09)"/><path class="cls-11" d="M985,347.66a4.85,4.85,0,0,1,4.84,4.83l.07,44.7a4.81,4.81,0,0,1-4.81,4.82l-44.69,0a4.85,4.85,0,0,1-4.83-4.84l-.08-44.64a4.8,4.8,0,0,1,4.82-4.82Z" transform="translate(-935.12 -346.09)"/><path class="cls-12" d="M985,347.66a4.85,4.85,0,0,1,4.84,4.83l.07,44.64a4.81,4.81,0,0,1-4.81,4.82l-44.63,0a4.85,4.85,0,0,1-4.83-4.84l-.08-44.58a4.8,4.8,0,0,1,4.82-4.82Z" transform="translate(-935.12 -346.09)"/><path class="cls-13" d="M985,347.66a4.85,4.85,0,0,1,4.84,4.83l.07,44.58a4.81,4.81,0,0,1-4.81,4.82l-44.57,0a4.86,4.86,0,0,1-4.84-4.84l-.07-44.52a4.79,4.79,0,0,1,4.81-4.82Z" transform="translate(-935.12 -346.09)"/><path class="cls-14" d="M985,347.66a4.85,4.85,0,0,1,4.84,4.83L990,397a4.81,4.81,0,0,1-4.81,4.82l-44.51,0a4.85,4.85,0,0,1-4.84-4.83l-.07-44.47a4.79,4.79,0,0,1,4.81-4.82Z" transform="translate(-935.12 -346.09)"/><path class="cls-15" d="M985,347.66a4.85,4.85,0,0,1,4.84,4.83L990,397a4.81,4.81,0,0,1-4.81,4.82l-44.45,0a4.85,4.85,0,0,1-4.84-4.83l-.07-44.41a4.79,4.79,0,0,1,4.81-4.82Z" transform="translate(-935.12 -346.09)"/><path class="cls-16" d="M985,347.66a4.85,4.85,0,0,1,4.84,4.83l.07,44.4a4.8,4.8,0,0,1-4.81,4.82l-44.39,0a4.85,4.85,0,0,1-4.84-4.83l-.07-44.35a4.79,4.79,0,0,1,4.81-4.82Z" transform="translate(-935.12 -346.09)"/><path class="cls-17" d="M985,347.66a4.85,4.85,0,0,1,4.84,4.83l.07,44.34a4.8,4.8,0,0,1-4.81,4.82l-44.33,0a4.85,4.85,0,0,1-4.84-4.83l-.07-44.29a4.79,4.79,0,0,1,4.81-4.82Z" transform="translate(-935.12 -346.09)"/><path class="cls-18" d="M985,347.66a4.85,4.85,0,0,1,4.84,4.83l.07,44.28a4.8,4.8,0,0,1-4.81,4.82l-44.27,0a4.85,4.85,0,0,1-4.84-4.83L936,352.49a4.79,4.79,0,0,1,4.81-4.82Z" transform="translate(-935.12 -346.09)"/><path class="cls-19" d="M985,347.66a4.85,4.85,0,0,1,4.84,4.83l.07,44.22a4.82,4.82,0,0,1-4.81,4.83l-44.22-.05a4.85,4.85,0,0,1-4.83-4.83L936,352.49a4.8,4.8,0,0,1,4.82-4.82Z" transform="translate(-935.12 -346.09)"/><path class="cls-20" d="M985,347.66a4.85,4.85,0,0,1,4.84,4.83l.07,44.16a4.82,4.82,0,0,1-4.81,4.83L941,401.43a4.85,4.85,0,0,1-4.83-4.83l-.08-44.11a4.8,4.8,0,0,1,4.82-4.82Z" transform="translate(-935.12 -346.09)"/><path class="cls-21" d="M985,347.66a4.85,4.85,0,0,1,4.84,4.83l.07,44.1a4.82,4.82,0,0,1-4.81,4.83l-44.1-.05a4.85,4.85,0,0,1-4.83-4.83l-.08-44.05a4.8,4.8,0,0,1,4.82-4.82Z" transform="translate(-935.12 -346.09)"/><path class="cls-22" d="M985,347.66a4.85,4.85,0,0,1,4.84,4.83l.07,44a4.81,4.81,0,0,1-4.81,4.83l-44-.05a4.84,4.84,0,0,1-4.83-4.83l-.08-44a4.8,4.8,0,0,1,4.82-4.82Z" transform="translate(-935.12 -346.09)"/><path class="cls-23" d="M985,347.66a4.85,4.85,0,0,1,4.84,4.83l.07,44a4.81,4.81,0,0,1-4.81,4.82l-44-.05a4.83,4.83,0,0,1-4.83-4.83l-.08-43.93a4.8,4.8,0,0,1,4.82-4.82Z" transform="translate(-935.12 -346.09)"/><path class="cls-24" d="M985,347.66a4.85,4.85,0,0,1,4.84,4.83l.07,43.93a4.81,4.81,0,0,1-4.81,4.82l-43.92-.05a4.83,4.83,0,0,1-4.83-4.83l-.08-43.87a4.8,4.8,0,0,1,4.82-4.82Z" transform="translate(-935.12 -346.09)"/><path class="cls-25" d="M985,347.66a4.85,4.85,0,0,1,4.84,4.83l.07,43.87a4.81,4.81,0,0,1-4.81,4.82l-43.86-.05a4.83,4.83,0,0,1-4.83-4.83l-.08-43.81a4.8,4.8,0,0,1,4.82-4.82Z" transform="translate(-935.12 -346.09)"/><path class="cls-26" d="M985,347.66a4.85,4.85,0,0,1,4.84,4.83L990,396.3a4.81,4.81,0,0,1-4.81,4.82l-43.8-.05a4.83,4.83,0,0,1-4.83-4.83l-.08-43.75a4.8,4.8,0,0,1,4.82-4.82Z" transform="translate(-935.12 -346.09)"/><path class="cls-27" d="M985,347.66a4.85,4.85,0,0,1,4.84,4.83l.07,43.75a4.81,4.81,0,0,1-4.81,4.82l-43.74,0a4.85,4.85,0,0,1-4.83-4.84l-.08-43.69a4.8,4.8,0,0,1,4.82-4.82Z" transform="translate(-935.12 -346.09)"/><path class="cls-28" d="M985,347.66a4.85,4.85,0,0,1,4.84,4.83l.07,43.69a4.81,4.81,0,0,1-4.81,4.82l-43.68,0a4.85,4.85,0,0,1-4.83-4.84l-.08-43.63a4.8,4.8,0,0,1,4.82-4.82Z" transform="translate(-935.12 -346.09)"/><path class="cls-29" d="M985,347.66a4.85,4.85,0,0,1,4.84,4.83l.07,43.63a4.81,4.81,0,0,1-4.81,4.82l-43.62,0a4.86,4.86,0,0,1-4.84-4.84l-.07-43.57a4.8,4.8,0,0,1,4.82-4.82Z" transform="translate(-935.12 -346.09)"/><path class="cls-30" d="M985,347.66a4.85,4.85,0,0,1,4.84,4.83l.07,43.57a4.81,4.81,0,0,1-4.81,4.82l-43.56,0a4.86,4.86,0,0,1-4.84-4.84l-.07-43.51a4.79,4.79,0,0,1,4.81-4.82Z" transform="translate(-935.12 -346.09)"/><path class="cls-31" d="M985,347.66a4.85,4.85,0,0,1,4.84,4.83L990,396a4.81,4.81,0,0,1-4.81,4.82l-43.5,0A4.85,4.85,0,0,1,936.8,396l-.07-43.46a4.79,4.79,0,0,1,4.81-4.82Z" transform="translate(-935.12 -346.09)"/><path class="cls-32" d="M985,347.66a4.85,4.85,0,0,1,4.84,4.83l.07,43.45a4.8,4.8,0,0,1-4.81,4.82l-43.44,0a4.85,4.85,0,0,1-4.84-4.83l-.07-43.4a4.79,4.79,0,0,1,4.81-4.82Z" transform="translate(-935.12 -346.09)"/><path class="cls-33" d="M985,347.66a4.85,4.85,0,0,1,4.84,4.83l.07,43.39a4.8,4.8,0,0,1-4.81,4.82l-43.38,0a4.85,4.85,0,0,1-4.84-4.83l-.07-43.34a4.79,4.79,0,0,1,4.81-4.82Z" transform="translate(-935.12 -346.09)"/><path class="cls-34" d="M985,347.66a4.85,4.85,0,0,1,4.84,4.83l.07,43.33a4.8,4.8,0,0,1-4.81,4.82l-43.32,0a4.85,4.85,0,0,1-4.84-4.83l-.07-43.28a4.79,4.79,0,0,1,4.81-4.82Z" transform="translate(-935.12 -346.09)"/><path class="cls-35" d="M985,347.66a4.85,4.85,0,0,1,4.84,4.83l.07,43.27a4.8,4.8,0,0,1-4.81,4.82l-43.26,0a4.85,4.85,0,0,1-4.84-4.83L937,352.49a4.79,4.79,0,0,1,4.81-4.82Z" transform="translate(-935.12 -346.09)"/><path class="cls-36" d="M985,347.66a4.85,4.85,0,0,1,4.84,4.83L990,395.7a4.82,4.82,0,0,1-4.81,4.83l-43.21,0a4.85,4.85,0,0,1-4.83-4.83L937,352.49a4.8,4.8,0,0,1,4.82-4.82Z" transform="translate(-935.12 -346.09)"/><path class="cls-37" d="M985,347.66a4.85,4.85,0,0,1,4.84,4.83l.07,43.15a4.82,4.82,0,0,1-4.81,4.83L942,400.42a4.85,4.85,0,0,1-4.83-4.83l-.08-43.1a4.8,4.8,0,0,1,4.82-4.82Z" transform="translate(-935.12 -346.09)"/><path class="cls-38" d="M985,347.66a4.85,4.85,0,0,1,4.84,4.83l.07,43.09a4.82,4.82,0,0,1-4.81,4.83l-43.09-.05a4.85,4.85,0,0,1-4.83-4.83l-.08-43a4.8,4.8,0,0,1,4.82-4.82Z" transform="translate(-935.12 -346.09)"/><path class="cls-39" d="M985,347.66a4.85,4.85,0,0,1,4.84,4.83l.07,43a4.81,4.81,0,0,1-4.81,4.83l-43-.05a4.83,4.83,0,0,1-4.83-4.83l-.08-43a4.8,4.8,0,0,1,4.82-4.82Z" transform="translate(-935.12 -346.09)"/><path class="cls-40" d="M985,347.66a4.85,4.85,0,0,1,4.84,4.83l.07,43a4.81,4.81,0,0,1-4.81,4.82l-43-.05a4.83,4.83,0,0,1-4.83-4.83l-.08-42.92a4.8,4.8,0,0,1,4.82-4.82Z" transform="translate(-935.12 -346.09)"/><path class="cls-41" d="M985,347.66a4.85,4.85,0,0,1,4.84,4.83l.07,42.92a4.81,4.81,0,0,1-4.81,4.82l-42.91-.05a4.83,4.83,0,0,1-4.83-4.83l-.08-42.86a4.8,4.8,0,0,1,4.82-4.82Z" transform="translate(-935.12 -346.09)"/><path class="cls-42" d="M985,347.66a4.85,4.85,0,0,1,4.84,4.83l.07,42.86a4.81,4.81,0,0,1-4.81,4.82l-42.85-.05a4.83,4.83,0,0,1-4.83-4.83l-.08-42.8a4.8,4.8,0,0,1,4.82-4.82Z" transform="translate(-935.12 -346.09)"/><path class="cls-43" d="M985,347.66a4.85,4.85,0,0,1,4.84,4.83l.07,42.8a4.81,4.81,0,0,1-4.81,4.82l-42.79-.05a4.83,4.83,0,0,1-4.83-4.83l-.08-42.74a4.8,4.8,0,0,1,4.82-4.82Z" transform="translate(-935.12 -346.09)"/><path class="cls-44" d="M985,347.66a4.85,4.85,0,0,1,4.84,4.83l.07,42.74a4.81,4.81,0,0,1-4.81,4.82l-42.73,0a4.85,4.85,0,0,1-4.83-4.84l-.08-42.68a4.8,4.8,0,0,1,4.82-4.82Z" transform="translate(-935.12 -346.09)"/><path class="cls-45" d="M985,347.66a4.85,4.85,0,0,1,4.84,4.83l.07,42.68a4.81,4.81,0,0,1-4.81,4.82l-42.67,0a4.85,4.85,0,0,1-4.83-4.84l-.08-42.62a4.8,4.8,0,0,1,4.82-4.82Z" transform="translate(-935.12 -346.09)"/><path class="cls-46" d="M985,347.66a4.85,4.85,0,0,1,4.84,4.83l.07,42.62a4.81,4.81,0,0,1-4.81,4.82l-42.61,0a4.86,4.86,0,0,1-4.84-4.84l-.07-42.56a4.8,4.8,0,0,1,4.82-4.82Z" transform="translate(-935.12 -346.09)"/><path class="cls-47" d="M985,347.66a4.85,4.85,0,0,1,4.84,4.83l.07,42.56a4.81,4.81,0,0,1-4.81,4.82l-42.55,0a4.86,4.86,0,0,1-4.84-4.84l-.07-42.5a4.79,4.79,0,0,1,4.81-4.82Z" transform="translate(-935.12 -346.09)"/><path class="cls-48" d="M985,347.66a4.85,4.85,0,0,1,4.84,4.83L990,395a4.81,4.81,0,0,1-4.81,4.82l-42.49,0a4.85,4.85,0,0,1-4.84-4.83l-.07-42.45a4.79,4.79,0,0,1,4.81-4.82Z" transform="translate(-935.12 -346.09)"/><path class="cls-49" d="M985,347.66a4.85,4.85,0,0,1,4.84,4.83l.07,42.44a4.8,4.8,0,0,1-4.81,4.82l-42.43,0a4.85,4.85,0,0,1-4.84-4.83l-.07-42.39a4.79,4.79,0,0,1,4.81-4.82Z" transform="translate(-935.12 -346.09)"/><path class="cls-50" d="M985,347.66a4.85,4.85,0,0,1,4.84,4.83l.07,42.38a4.8,4.8,0,0,1-4.81,4.82l-42.37,0a4.85,4.85,0,0,1-4.84-4.83l-.07-42.33a4.79,4.79,0,0,1,4.81-4.82Z" transform="translate(-935.12 -346.09)"/><path class="cls-51" d="M985,347.66a4.85,4.85,0,0,1,4.84,4.83l.07,42.32a4.8,4.8,0,0,1-4.81,4.82l-42.31,0a4.85,4.85,0,0,1-4.84-4.83l-.07-42.27a4.79,4.79,0,0,1,4.81-4.82Z" transform="translate(-935.12 -346.09)"/><path class="cls-52" d="M985,347.66a4.85,4.85,0,0,1,4.84,4.83l.07,42.26a4.8,4.8,0,0,1-4.81,4.82l-42.25,0a4.85,4.85,0,0,1-4.84-4.83L938,352.49a4.79,4.79,0,0,1,4.81-4.82Z" transform="translate(-935.12 -346.09)"/><path class="cls-53" d="M985,347.66a4.85,4.85,0,0,1,4.84,4.83l.07,42.2a4.82,4.82,0,0,1-4.81,4.83l-42.2,0a4.85,4.85,0,0,1-4.83-4.83L938,352.49a4.8,4.8,0,0,1,4.82-4.82Z" transform="translate(-935.12 -346.09)"/><path class="cls-54" d="M985,347.66a4.85,4.85,0,0,1,4.84,4.83l.07,42.14a4.82,4.82,0,0,1-4.81,4.83l-42.14,0a4.85,4.85,0,0,1-4.83-4.83l-.08-42.09a4.8,4.8,0,0,1,4.82-4.82Z" transform="translate(-935.12 -346.09)"/><path class="cls-55" d="M985,347.66a4.85,4.85,0,0,1,4.84,4.83l.07,42.08a4.82,4.82,0,0,1-4.81,4.83l-42.08,0a4.85,4.85,0,0,1-4.83-4.83l-.08-42a4.8,4.8,0,0,1,4.82-4.82Z" transform="translate(-935.12 -346.09)"/><path class="cls-56" d="M985,347.66a4.85,4.85,0,0,1,4.84,4.83l.07,42a4.81,4.81,0,0,1-4.81,4.82l-42,0a4.83,4.83,0,0,1-4.83-4.83l-.08-42a4.8,4.8,0,0,1,4.82-4.82Z" transform="translate(-935.12 -346.09)"/><path class="cls-57" d="M985,347.66a4.85,4.85,0,0,1,4.84,4.83l.07,42a4.81,4.81,0,0,1-4.81,4.82l-42,0a4.83,4.83,0,0,1-4.83-4.83l-.08-41.91a4.8,4.8,0,0,1,4.82-4.82Z" transform="translate(-935.12 -346.09)"/><path class="cls-58" d="M985,347.66a4.85,4.85,0,0,1,4.84,4.83L990,394.4a4.81,4.81,0,0,1-4.81,4.82l-41.9-.05a4.83,4.83,0,0,1-4.83-4.83l-.08-41.85a4.8,4.8,0,0,1,4.82-4.82Z" transform="translate(-935.12 -346.09)"/><path class="cls-59" d="M985,347.66a4.85,4.85,0,0,1,4.84,4.83l.07,41.85a4.81,4.81,0,0,1-4.81,4.82l-41.84-.05a4.83,4.83,0,0,1-4.83-4.83l-.08-41.79a4.8,4.8,0,0,1,4.82-4.82Z" transform="translate(-935.12 -346.09)"/><path class="cls-60" d="M985,347.66a4.85,4.85,0,0,1,4.84,4.83l.07,41.79a4.81,4.81,0,0,1-4.81,4.82l-41.78-.05a4.83,4.83,0,0,1-4.83-4.83l-.08-41.73a4.8,4.8,0,0,1,4.82-4.82Z" transform="translate(-935.12 -346.09)"/><path class="cls-61" d="M985,347.66a4.85,4.85,0,0,1,4.84,4.83l.07,41.73a4.81,4.81,0,0,1-4.81,4.82l-41.72,0a4.85,4.85,0,0,1-4.83-4.84l-.08-41.67a4.8,4.8,0,0,1,4.82-4.82Z" transform="translate(-935.12 -346.09)"/><path class="cls-62" d="M985,347.66a4.85,4.85,0,0,1,4.84,4.83l.07,41.67a4.81,4.81,0,0,1-4.81,4.82l-41.66,0a4.85,4.85,0,0,1-4.83-4.84l-.08-41.61a4.8,4.8,0,0,1,4.82-4.82Z" transform="translate(-935.12 -346.09)"/><path class="cls-63" d="M985,347.66a4.85,4.85,0,0,1,4.84,4.83L990,394.1a4.81,4.81,0,0,1-4.81,4.82l-41.6,0A4.86,4.86,0,0,1,938.7,394l-.07-41.55a4.79,4.79,0,0,1,4.81-4.82Z" transform="translate(-935.12 -346.09)"/><path class="cls-64" d="M985,347.66a4.85,4.85,0,0,1,4.84,4.83L990,394a4.81,4.81,0,0,1-4.81,4.82l-41.54,0a4.85,4.85,0,0,1-4.84-4.83l-.07-41.5a4.79,4.79,0,0,1,4.81-4.82Z" transform="translate(-935.12 -346.09)"/><path class="cls-65" d="M985,347.66a4.85,4.85,0,0,1,4.84,4.83L990,394a4.81,4.81,0,0,1-4.81,4.82l-41.48,0a4.85,4.85,0,0,1-4.84-4.83l-.07-41.44a4.79,4.79,0,0,1,4.81-4.82Z" transform="translate(-935.12 -346.09)"/><path class="cls-66" d="M985,347.66a4.85,4.85,0,0,1,4.84,4.83l.07,41.43a4.8,4.8,0,0,1-4.81,4.82l-41.42,0a4.85,4.85,0,0,1-4.84-4.83l-.07-41.38a4.79,4.79,0,0,1,4.81-4.82Z" transform="translate(-935.12 -346.09)"/><path class="cls-67" d="M985,347.66a4.85,4.85,0,0,1,4.84,4.83l.07,41.37a4.8,4.8,0,0,1-4.81,4.82l-41.36,0a4.85,4.85,0,0,1-4.84-4.83l-.07-41.32a4.79,4.79,0,0,1,4.81-4.82Z" transform="translate(-935.12 -346.09)"/><path class="cls-68" d="M985,347.66a4.85,4.85,0,0,1,4.84,4.83L990,393.8a4.8,4.8,0,0,1-4.81,4.82l-41.3,0a4.85,4.85,0,0,1-4.84-4.83l-.07-41.26a4.79,4.79,0,0,1,4.81-4.82Z" transform="translate(-935.12 -346.09)"/><path class="cls-69" d="M985,347.66a4.85,4.85,0,0,1,4.84,4.83l.07,41.25a4.82,4.82,0,0,1-4.81,4.83l-41.24-.05a4.85,4.85,0,0,1-4.84-4.83l-.08-41.2a4.8,4.8,0,0,1,4.82-4.82Z" transform="translate(-935.12 -346.09)"/><path class="cls-70" d="M985,347.66a4.85,4.85,0,0,1,4.84,4.83l.07,41.19a4.82,4.82,0,0,1-4.81,4.83L944,398.46a4.85,4.85,0,0,1-4.83-4.83L939,352.49a4.8,4.8,0,0,1,4.82-4.82Z" transform="translate(-935.12 -346.09)"/><path class="cls-71" d="M985,347.66a4.85,4.85,0,0,1,4.84,4.83l.07,41.13a4.82,4.82,0,0,1-4.81,4.83L944,398.4a4.85,4.85,0,0,1-4.83-4.83l-.08-41.08a4.8,4.8,0,0,1,4.82-4.82Z" transform="translate(-935.12 -346.09)"/><path class="cls-72" d="M985,347.66a4.85,4.85,0,0,1,4.84,4.83l.07,41.07a4.82,4.82,0,0,1-4.81,4.83l-41.07-.05a4.85,4.85,0,0,1-4.83-4.83l-.08-41a4.8,4.8,0,0,1,4.82-4.82Z" transform="translate(-935.12 -346.09)"/><path class="cls-73" d="M985,347.66a4.85,4.85,0,0,1,4.84,4.83l.07,41a4.81,4.81,0,0,1-4.81,4.82l-41-.05a4.83,4.83,0,0,1-4.83-4.83l-.08-41a4.8,4.8,0,0,1,4.82-4.82Z" transform="translate(-935.12 -346.09)"/><path class="cls-74" d="M985,347.66a4.85,4.85,0,0,1,4.84,4.83l.07,41a4.81,4.81,0,0,1-4.81,4.82l-40.95,0a4.83,4.83,0,0,1-4.83-4.83l-.08-40.9a4.8,4.8,0,0,1,4.82-4.82Z" transform="translate(-935.12 -346.09)"/><path class="cls-75" d="M985,347.66a4.85,4.85,0,0,1,4.84,4.83l.07,40.9a4.81,4.81,0,0,1-4.81,4.82l-40.89,0a4.83,4.83,0,0,1-4.83-4.83l-.08-40.84a4.8,4.8,0,0,1,4.82-4.82Z" transform="translate(-935.12 -346.09)"/><path class="cls-76" d="M985,347.66a4.85,4.85,0,0,1,4.84,4.83l.07,40.84a4.81,4.81,0,0,1-4.81,4.82l-40.83,0a4.83,4.83,0,0,1-4.83-4.83l-.08-40.78a4.8,4.8,0,0,1,4.82-4.82Z" transform="translate(-935.12 -346.09)"/><path class="cls-77" d="M985,347.66a4.85,4.85,0,0,1,4.84,4.83l.07,40.78a4.81,4.81,0,0,1-4.81,4.82l-40.77,0a4.83,4.83,0,0,1-4.83-4.83l-.08-40.72a4.8,4.8,0,0,1,4.82-4.82Z" transform="translate(-935.12 -346.09)"/><path class="cls-78" d="M985,347.66a4.85,4.85,0,0,1,4.84,4.83l.07,40.72a4.81,4.81,0,0,1-4.81,4.82l-40.71,0a4.85,4.85,0,0,1-4.83-4.84l-.08-40.66a4.8,4.8,0,0,1,4.82-4.82Z" transform="translate(-935.12 -346.09)"/><path class="cls-79" d="M985,347.66a4.85,4.85,0,0,1,4.84,4.83l.07,40.66a4.81,4.81,0,0,1-4.81,4.82l-40.65,0a4.85,4.85,0,0,1-4.83-4.84l-.08-40.6a4.8,4.8,0,0,1,4.82-4.82Z" transform="translate(-935.12 -346.09)"/><path class="cls-80" d="M985,347.66a4.85,4.85,0,0,1,4.84,4.83l.07,40.6a4.81,4.81,0,0,1-4.81,4.82l-40.59,0a4.86,4.86,0,0,1-4.84-4.84l-.07-40.54a4.79,4.79,0,0,1,4.81-4.82Z" transform="translate(-935.12 -346.09)"/><path class="cls-81" d="M985,347.66a4.85,4.85,0,0,1,4.84,4.83L990,393a4.81,4.81,0,0,1-4.81,4.82l-40.53,0a4.85,4.85,0,0,1-4.84-4.83l-.07-40.49a4.79,4.79,0,0,1,4.81-4.82Z" transform="translate(-935.12 -346.09)"/><path class="cls-82" d="M985,347.66a4.85,4.85,0,0,1,4.84,4.83L990,393a4.81,4.81,0,0,1-4.81,4.82l-40.47,0a4.85,4.85,0,0,1-4.84-4.83l-.07-40.43a4.79,4.79,0,0,1,4.81-4.82Z" transform="translate(-935.12 -346.09)"/><path class="cls-83" d="M985,347.66a4.85,4.85,0,0,1,4.84,4.83l.07,40.42a4.8,4.8,0,0,1-4.81,4.82l-40.41,0a4.85,4.85,0,0,1-4.84-4.83l-.07-40.37a4.79,4.79,0,0,1,4.81-4.82Z" transform="translate(-935.12 -346.09)"/><path class="cls-84" d="M985,347.66a4.85,4.85,0,0,1,4.84,4.83l.07,40.36a4.8,4.8,0,0,1-4.81,4.82l-40.35,0A4.85,4.85,0,0,1,940,392.8l-.07-40.31a4.79,4.79,0,0,1,4.81-4.82Z" transform="translate(-935.12 -346.09)"/><path class="cls-85" d="M985,347.66a4.85,4.85,0,0,1,4.84,4.83l.07,40.3a4.8,4.8,0,0,1-4.81,4.82l-40.29,0a4.85,4.85,0,0,1-4.84-4.83l-.07-40.25a4.79,4.79,0,0,1,4.81-4.82Z" transform="translate(-935.12 -346.09)"/><path class="cls-86" d="M985,347.66a4.85,4.85,0,0,1,4.84,4.83l.07,40.24a4.82,4.82,0,0,1-4.81,4.83l-40.23-.05a4.85,4.85,0,0,1-4.84-4.83L940,352.49a4.8,4.8,0,0,1,4.82-4.82Z" transform="translate(-935.12 -346.09)"/><path class="cls-87" d="M985,347.66a4.85,4.85,0,0,1,4.84,4.83l.07,40.18a4.82,4.82,0,0,1-4.81,4.83L945,397.45a4.85,4.85,0,0,1-4.83-4.83l-.08-40.13a4.8,4.8,0,0,1,4.82-4.82Z" transform="translate(-935.12 -346.09)"/><path class="cls-88" d="M985,347.66a4.85,4.85,0,0,1,4.84,4.83l.07,40.12a4.82,4.82,0,0,1-4.81,4.83L945,397.39a4.85,4.85,0,0,1-4.83-4.83l-.08-40.07a4.8,4.8,0,0,1,4.82-4.82Z" transform="translate(-935.12 -346.09)"/><path class="cls-89" d="M985,347.66a4.85,4.85,0,0,1,4.84,4.83l.07,40.06a4.82,4.82,0,0,1-4.81,4.83l-40.06-.05a4.85,4.85,0,0,1-4.83-4.83l-.08-40a4.8,4.8,0,0,1,4.82-4.82Z" transform="translate(-935.12 -346.09)"/><path class="cls-90" d="M985,347.66a4.85,4.85,0,0,1,4.84,4.83l.07,40a4.81,4.81,0,0,1-4.81,4.82l-40-.05a4.83,4.83,0,0,1-4.83-4.83l-.08-39.95a4.8,4.8,0,0,1,4.82-4.82Z" transform="translate(-935.12 -346.09)"/><path class="cls-91" d="M985,347.66a4.85,4.85,0,0,1,4.84,4.83l.07,39.95a4.81,4.81,0,0,1-4.81,4.82l-39.94-.05a4.83,4.83,0,0,1-4.83-4.83l-.08-39.89a4.8,4.8,0,0,1,4.82-4.82Z" transform="translate(-935.12 -346.09)"/><path class="cls-92" d="M985,347.66a4.85,4.85,0,0,1,4.84,4.83l.07,39.89a4.81,4.81,0,0,1-4.81,4.82l-39.88-.05a4.83,4.83,0,0,1-4.83-4.83l-.08-39.83a4.8,4.8,0,0,1,4.82-4.82Z" transform="translate(-935.12 -346.09)"/><path class="cls-93" d="M985,347.66a4.85,4.85,0,0,1,4.84,4.83l.07,39.83a4.81,4.81,0,0,1-4.81,4.82l-39.82-.05a4.83,4.83,0,0,1-4.83-4.83l-.08-39.77a4.8,4.8,0,0,1,4.82-4.82Z" transform="translate(-935.12 -346.09)"/><path class="cls-94" d="M985,347.66a4.85,4.85,0,0,1,4.84,4.83l.07,39.77a4.81,4.81,0,0,1-4.81,4.82l-39.76,0a4.85,4.85,0,0,1-4.83-4.84l-.08-39.71a4.8,4.8,0,0,1,4.82-4.82Z" transform="translate(-935.12 -346.09)"/><path class="cls-95" d="M985,347.66a4.85,4.85,0,0,1,4.84,4.83L990,392.2a4.81,4.81,0,0,1-4.81,4.82l-39.7,0a4.85,4.85,0,0,1-4.83-4.84l-.08-39.65a4.8,4.8,0,0,1,4.82-4.82Z" transform="translate(-935.12 -346.09)"/><path class="cls-96" d="M985,347.66a4.85,4.85,0,0,1,4.84,4.83l.07,39.65a4.81,4.81,0,0,1-4.81,4.82l-39.64,0a4.85,4.85,0,0,1-4.83-4.84l-.08-39.59a4.8,4.8,0,0,1,4.82-4.82Z" transform="translate(-935.12 -346.09)"/><path class="cls-97" d="M985,347.66a4.85,4.85,0,0,1,4.84,4.83l.07,39.59a4.81,4.81,0,0,1-4.81,4.82l-39.58,0a4.86,4.86,0,0,1-4.84-4.84l-.07-39.53a4.79,4.79,0,0,1,4.81-4.82Z" transform="translate(-935.12 -346.09)"/><path class="cls-98" d="M985,347.66a4.85,4.85,0,0,1,4.84,4.83L990,392a4.81,4.81,0,0,1-4.81,4.82l-39.52,0a4.85,4.85,0,0,1-4.84-4.83l-.07-39.48a4.79,4.79,0,0,1,4.81-4.82Z" transform="translate(-935.12 -346.09)"/><path class="cls-99" d="M985,347.66a4.85,4.85,0,0,1,4.84,4.83L990,392a4.81,4.81,0,0,1-4.81,4.82l-39.46,0a4.85,4.85,0,0,1-4.84-4.83l-.07-39.42a4.79,4.79,0,0,1,4.81-4.82Z" transform="translate(-935.12 -346.09)"/><path class="cls-100" d="M985,347.66a4.85,4.85,0,0,1,4.84,4.83L990,391.9a4.8,4.8,0,0,1-4.81,4.82l-39.4,0a4.85,4.85,0,0,1-4.84-4.83l-.07-39.36a4.79,4.79,0,0,1,4.81-4.82Z" transform="translate(-935.12 -346.09)"/><path class="cls-101" d="M985,347.66a4.85,4.85,0,0,1,4.84,4.83l.07,39.35a4.8,4.8,0,0,1-4.81,4.82l-39.34,0a4.85,4.85,0,0,1-4.84-4.83l-.07-39.3a4.79,4.79,0,0,1,4.81-4.82Z" transform="translate(-935.12 -346.09)"/><path class="cls-102" d="M985,347.66a4.85,4.85,0,0,1,4.84,4.83l.07,39.29a4.8,4.8,0,0,1-4.81,4.82l-39.28,0a4.85,4.85,0,0,1-4.84-4.83L941,352.49a4.79,4.79,0,0,1,4.81-4.82Z" transform="translate(-935.12 -346.09)"/><path class="cls-103" d="M985,347.66a4.85,4.85,0,0,1,4.84,4.83l.07,39.23a4.82,4.82,0,0,1-4.81,4.83l-39.23-.05a4.85,4.85,0,0,1-4.83-4.83L941,352.49a4.8,4.8,0,0,1,4.82-4.82Z" transform="translate(-935.12 -346.09)"/><path class="cls-104" d="M985,347.66a4.85,4.85,0,0,1,4.84,4.83l.07,39.17a4.82,4.82,0,0,1-4.81,4.83L946,396.44a4.85,4.85,0,0,1-4.83-4.83l-.08-39.12a4.8,4.8,0,0,1,4.82-4.82Z" transform="translate(-935.12 -346.09)"/><path class="cls-105" d="M985,347.66a4.85,4.85,0,0,1,4.84,4.83L990,391.6a4.82,4.82,0,0,1-4.81,4.83L946,396.38a4.85,4.85,0,0,1-4.83-4.83l-.08-39.06a4.8,4.8,0,0,1,4.82-4.82Z" transform="translate(-935.12 -346.09)"/></g><path class="cls-106" d="M985,347.66a4.85,4.85,0,0,1,4.84,4.83L990,391.6a4.82,4.82,0,0,1-4.81,4.83L946,396.38a4.85,4.85,0,0,1-4.83-4.83l-.08-39.06a4.8,4.8,0,0,1,4.82-4.82Z" transform="translate(-935.12 -346.09)"/><g class="cls-107"><path class="cls-108" d="M988.62,395l-.07-.07a.15.15,0,0,0,0,.07c-.08-.08-.37.09-.91.34a5,5,0,0,1-2.39.47c-2.33-.19-5.77-.37-10-.51s-9.25-.27-14.83-.36l-8.76-.1-4.63,0h-1.13a3,3,0,0,1-.79-.13,3.25,3.25,0,0,1-1.37-.81,3.31,3.31,0,0,1-.84-1.37,4.12,4.12,0,0,1-.14-.78V390.6l0-4.63-.11-8.76c-.09-5.59-.22-10.62-.37-14.84s-.33-7.66-.52-10a5.12,5.12,0,0,1,.45-2.4c.25-.53.42-.82.34-.9s-.4.06-.87.55a4.7,4.7,0,0,0-1.15,2.72c-.19,2.4-.35,5.79-.49,10s-.24,9.26-.31,14.84l-.07,8.76,0,4.64v1.25a6.38,6.38,0,0,0,1.9,4.25,6.29,6.29,0,0,0,4.28,1.84H947l4.64,0,8.76-.08c5.58-.08,10.61-.19,14.83-.33s7.62-.3,10-.49a4.67,4.67,0,0,0,2.72-1.17c.49-.47.63-.8.55-.87Z" transform="translate(-935.12 -346.09)"/><path class="cls-109" d="M943.44,348.74a4.93,4.93,0,0,1,2.39-.45c2.34.18,5.78.35,10,.5s9.26.25,14.84.33l8.76.09,4.64,0h1.11a3,3,0,0,1,.79.14,3.17,3.17,0,0,1,1.37.82,3.13,3.13,0,0,1,.83,1.37,3.35,3.35,0,0,1,.13.78v1.11l0,4.64.11,8.76c.09,5.58.21,10.61.36,14.83s.34,7.65.52,10a5,5,0,0,1-.44,2.4,4,4,0,0,0-.34.85l.07.07c.13,0,.42-.15.81-.57a4.65,4.65,0,0,0,1.14-2.73c.19-2.38.35-5.79.48-10s.25-9.26.31-14.84l.08-8.76v-5.88a6.29,6.29,0,0,0-.26-1.55,6.43,6.43,0,0,0-1.62-2.71,6.51,6.51,0,0,0-2.72-1.61,6.78,6.78,0,0,0-1.55-.25h-1.24l-4.64,0-8.76.1c-5.59.08-10.61.19-14.84.34s-7.62.31-10,.5a4.74,4.74,0,0,0-2.73,1.16,1.93,1.93,0,0,0-.56.76l.12.12A6.42,6.42,0,0,0,943.44,348.74Z" transform="translate(-935.12 -346.09)"/></g><path class="cls-110" d="M967.57,364.74a4.63,4.63,0,0,0-4,1.92,9,9,0,0,0-1.4,5.37q0,7.17,5.37,7.17a17.06,17.06,0,0,0,5.47-1.13v3.81a15.22,15.22,0,0,1-5.89,1.09q-4.68,0-7.15-2.83T957.52,372a13.32,13.32,0,0,1,1.22-5.85,8.77,8.77,0,0,1,3.49-3.85,10.28,10.28,0,0,1,5.34-1.34,14.36,14.36,0,0,1,6.27,1.51l-1.46,3.69c-.8-.38-1.61-.71-2.42-1A7.3,7.3,0,0,0,967.57,364.74Z" transform="translate(-935.12 -346.09)"/><path class="cls-110" d="M986.54,352.74a1.17,1.17,0,0,1-.29.79,1.44,1.44,0,0,1-.79.45v0a1.62,1.62,0,0,1,.91.36,1,1,0,0,1,.31.79,1.32,1.32,0,0,1-.52,1.12,2.4,2.4,0,0,1-1.49.4,3.64,3.64,0,0,1-1.45-.27v-.89a5.32,5.32,0,0,0,.64.24,2.84,2.84,0,0,0,.69.09,1.36,1.36,0,0,0,.78-.18.67.67,0,0,0,.25-.57.52.52,0,0,0-.29-.5,2.1,2.1,0,0,0-.92-.15H984v-.81h.39a1.82,1.82,0,0,0,.85-.15.54.54,0,0,0,.27-.52c0-.38-.24-.57-.71-.57a1.74,1.74,0,0,0-.5.08,2.56,2.56,0,0,0-.57.29l-.49-.73a2.71,2.71,0,0,1,1.63-.49,2.11,2.11,0,0,1,1.23.31A1,1,0,0,1,986.54,352.74Z" transform="translate(-935.12 -346.09)"/></g></g></svg>