<svg id="Capa_1" data-name="Capa 1" xmlns="http://www.w3.org/2000/svg" viewBox="0 0 115.32 587.84"><defs><style>.cls-1{fill:#0b0b0b;}</style></defs><path class="cls-1" d="M912.63,246q6.29,103.74,12.57,207.48,4.74,78.56,9.4,157.11,5.5,95.36,10.7,190.74c.52,9.54,1.77,10.59,10.49,6.94a117.75,117.75,0,0,1,37.42-9.16c12.65-.9,22.11,4.08,23.43,11.84s-6.65,17-18.42,19.85c-17.75,4.24-35.65,3.47-53.45,0-7.72-1.5-11.24-6.68-11.68-14.36-1.51-26.32-3.16-52.64-4.64-79q-3.76-66.39-7.38-132.78-3.9-70.17-7.81-140.33-3.66-66-7.26-131.94-2.34-43.29-4.54-86.58ZM966.4,818.77c16.91,3.62,28.39,1.83,36-5.46C989.76,810.52,978.6,813.19,966.4,818.77Z" transform="translate(-901.46 -245.9)"/></svg>