<svg id="Capa_1" data-name="Capa 1" xmlns="http://www.w3.org/2000/svg" viewBox="0 0 128.6 363.1"><defs><style>.cls-1{fill:#0e0e0e;}</style></defs><path class="cls-1" d="M965.27,358.46q2.33,17.37,4.67,34.72c-3.55,1.09-2.89,4.56-3.47,6.95C952.1,459,930.93,515.62,910.23,572.41c-4.26,11.7-3.23,15,6.87,22.47,32.17,23.72,64.15,47.68,94.47,73.77a26,26,0,0,0,3.34,2.48c10.09,6.13,11.06,8.11,5.82,18.55-7.33,14.62-18,25.89-34.18,31-5.95,1.86-11.1,1-15-4s-1.93-9.79,1.13-14.53c5.62-8.72,13.95-14.12,22.59-19.27,7.69-4.59,7.87-7.18.59-12.72-31.38-23.85-61.24-49.66-93.49-72.38-7.71-5.43-8.9-12-4.83-23.84,11.76-34.08,23.19-68.28,35.38-102.21s20.87-68.94,27.72-104.37C961.28,364.09,960.79,359.9,965.27,358.46ZM1004,691.59c-8.7,2.41-14.74,8-20.32,16.1,12.81-1.23,17.75-5.31,20.61-15.82l.58-.85Z" transform="translate(-895.25 -358.46)"/></svg>