<svg id="Capa_1" data-name="Capa 1" xmlns="http://www.w3.org/2000/svg" viewBox="0 0 100.21 609.05"><defs><style>.cls-1{fill:#0c0c0c;}</style></defs><path class="cls-1" d="M936.79,236c1.33,28.23,6.63,56,9.87,84,9.26,79.94,19.13,159.81,28.73,239.71Q988.64,669.84,1001.92,780c1.7,13.9.3,28.35,6.9,41.51,1.7,3.39-.85,6.05-3.74,7.34-26.35,11.69-53.08,19.68-81.77,8-7.4-3-14.38-6.44-14.15-15.77.25-10,7.12-14.61,15.79-17.15,11.63-3.4,23.39-3,35.12-.77,5.61,1.07,11.14,2.59,16.69,4,15.42,3.94,15.11,4,13.15-12.35q-16.67-139.15-33.09-278.34-12.09-101.68-24.16-203.37c-3-25.76-5.54-51.58-8.29-77.37l5.13-2.23C931.9,234.43,935.25,232.42,936.79,236Zm42.87,587.2c-16.15-5.8-32.31-11.19-49.79-7-2.58.62-5.65,1.29-5.9,4.5-.27,3.52,3.07,3.76,5.47,4.71C946.32,832.05,963,830.41,979.66,823.15Z" transform="translate(-909.15 -233.56)"/></svg>