<svg id="Capa_1" data-name="Capa 1" xmlns="http://www.w3.org/2000/svg" viewBox="0 0 264.74 478.19"><defs><style>.cls-1{fill:#0e0e0e;}</style></defs><path class="cls-1" d="M1034.55,767.14c-14.12.65-27.78,2.94-41.54,4-21.94,1.67-43.5,5.93-65.25,9-4.6.63-6.24-.52-6.35-5.31-.57-24.43-6.38-48.1-10.86-72-12.83-68.37-26.77-136.5-44-203.93-7.91-31-16.73-61.66-27.53-91.78-4.37-12.2-7.34-24.88-11.1-37.3-1.1-3.64.29-5.73,3.39-7.22,4.4-2.12,9.19-2.84,13.91-3.83C877.49,352,908,341.08,935,321.65c6.2-4.47,11.91-9.62,17.89-14.4,8.35-6.7,13.8-7,22.5-.58C995.32,321.32,1016,334.61,1039,344a215.16,215.16,0,0,0,43.46,13c6.25,1.11,9.24,3.81,9.63,10.26.54,9,.34,17.92-3,26.87-4.61,12.3-6.08,25.54-8.43,38.46-7.6,41.71-10.08,83.91-12.17,126.17-1.59,32.09-3.7,64.15-5.55,96.22-1.56,26.92-4.45,53.76-4.41,80.77a135.31,135.31,0,0,0,1.73,23.88c.71,3.92-.45,5.79-4.64,6.4C1048.49,767,1041.46,768.39,1034.55,767.14Zm-93.42-.51c.33,0,1.16-.07,2-.2,30.59-4.9,61.47-7.27,92.23-10.62,10-1.09,10.61-1.54,10.51-11.61-.52-51.2,5-102.09,8-153.1q2.34-39.14,4.63-78.29,1.89-31.66,6.7-63c3.55-23.38,9-46.38,14.35-69.38,1.85-7.91.72-9.93-7.19-12.44-9.51-3-19.21-5.51-28.63-8.8-25.53-8.93-48.51-22.64-70.35-38.4-9-6.5-11.27-6.4-19.6.63a210.62,210.62,0,0,1-22.06,16.34c-26.18,16.8-55,26.59-85.31,32.71-7.95,1.61-8.63,3-5.34,10.49,5.15,11.73,10.19,23.52,14.17,35.71,11.74,35.93,21.12,72.51,30,109.22,14.35,59,26.23,118.57,37.58,178.23,3.54,18.64,7.12,37.26,10.6,55.91C934.24,764.12,936,766.86,941.13,766.63Z" transform="translate(-827.56 -302.05)"/></svg>