<svg id="Capa_1" data-name="Capa 1" xmlns="http://www.w3.org/2000/svg" viewBox="0 0 100.17 348.81"><defs><style>.cls-1{fill:#0e0e0e;}</style></defs><path class="cls-1" d="M910.5,392l-1.7-26.35c4.46.48,6,4.12,7.27,7.44,24.23,60.72,59.48,115.74,89.54,173.45,5,9.67,4.46,17.64-2.13,26.13-20.92,27-41.57,54.15-62.31,81.26-6.19,8.1-6,8.68,2.76,14.26A59,59,0,0,1,969,700.44c1.33,4,2.37,8.47-1.47,11.7s-8.31,2.7-12.52.39c-18.45-10.13-27.07-27.19-32.33-46.46-1.13-4.16,1.47-7.57,3.91-10.74q31.44-40.91,62.92-81.78c8.7-11.24,9.1-16.89,2.29-29.37C970.43,505,947,467,928,426.51c-4.24-9-8.12-18.21-12.43-27.2C914.28,396.67,914.32,392.92,910.5,392Zm30.55,287.93c2.91,9.18,6.83,14.62,14.68,18.77C953.45,690.15,949.23,685,941.05,679.89Z" transform="translate(-908.8 -365.61)"/></svg>