<svg id="Capa_1" data-name="Capa 1" xmlns="http://www.w3.org/2000/svg" viewBox="0 0 334.52 1079"><defs><style>.cls-1{fill:#040404;}</style></defs><path class="cls-1" d="M895.42,416.4c4.47-6.25,14.47-10.21,8.58-20.74,8-10.94-2.47-10.48-8-13.05L876.8,367.14c-3.77-9.18-9.62-13.45-19.49-8.31-20-9-39.87-18.37-60.07-26.91-9.54-4-6.49-11.18-4.74-17,2.36-7.9,8.37-3.93,12.79-1.7,23.39,11.79,47.61,21.59,71.76,31.67,21.75,9.08,39.7,23.35,47,47.42,1.38,2,2.72,4.27,5.21,1.12l-.21-20.08c12.63-7.88,12.55-10.61-.57-19.05-2.62-74.36-3.88-148.75-.47-223.08,1.87-40.81,3-81.6,3.64-122.43.09-5.51-3.62-13,7.33-13.57,10.08-.55,10.56,5.25,11.23,12.67,4.54,49.8-1.54,99.44-2.46,149.14-.31,16.48,2.68,33.62-4.72,49.55,0,0,0-.52,0-.52,3.59,5.61,3.46,11.93,3.56,18.24.86,59.78,4,119.53,2.63,179.34-.25,10.65-.28,19.5,14.15,21,8.26.88,10.52,9.38,7.4,16.12-4.94,10.69.41,16,8.47,19.94,6.93,3.34,7.53,8.29,8.12,15.14A242.15,242.15,0,0,1,981.26,553c-1.08,4.54-.18,10.6-5.34,12.24-18.42,5.84-9.09,16.66-4.15,25.13,29.08,49.76,59.6,98.7,87.94,148.87,29.38,52,58.22,104.32,64.56,165.7,7.75,74.93-38,143.47-111.08,163.75-71.33,19.8-142.89-15.44-174.58-84.94-28.74-63-20.84-125.5.56-188.17,20.2-59.12,49.18-114.46,73.8-171.67,6.21-14.41,12.23-28.9,18.21-43.41C933,576.07,935,571,928.23,569c-16.1-4.73-15.2-19.15-16.13-30.82-1.6-20-1.08-40.28-.55-60.42.42-16.22-.29-31.48-15.84-41.34Zm53.84,175c-7.73,18.27-13.39,32.32-19.58,46.13-27.39,61.09-57.59,121-77.17,185.34C837,873.93,834.88,925.16,856.76,975c18.79,42.82,51.79,69.69,98.47,76.4,47.9,6.9,88.31-9.92,118.59-47,34.58-42.33,37.66-91.08,21.14-141.37C1062.84,765.24,998.72,684.68,949.26,591.36Z" transform="translate(-790.61 4.84)"/></svg>