<svg xmlns="http://www.w3.org/2000/svg" xmlns:xlink="http://www.w3.org/1999/xlink" viewBox="0 0 56.33 56.36"><defs><style>.cls-1{fill:none;}.cls-2{isolation:isolate;}.cls-3{mix-blend-mode:multiply;}.cls-110,.cls-4{fill:#fff;}.cls-4{opacity:0;}.cls-5{fill:#fdfdfd;opacity:0.01;}.cls-6{fill:#fbfbfb;opacity:0.02;}.cls-7{fill:#f9f9f9;opacity:0.03;}.cls-8{fill:#f7f7f7;opacity:0.04;}.cls-9{fill:#f5f5f5;opacity:0.05;}.cls-10{fill:#f3f3f3;opacity:0.06;}.cls-11{fill:#f2f1f1;opacity:0.07;}.cls-12{fill:#f0f0ef;opacity:0.08;}.cls-13{fill:#eee;opacity:0.09;}.cls-14{fill:#ececec;opacity:0.1;}.cls-15{fill:#eaeaea;opacity:0.11;}.cls-16{fill:#e8e8e8;opacity:0.12;}.cls-17{fill:#e6e6e6;opacity:0.13;}.cls-18{fill:#e4e4e4;opacity:0.14;}.cls-19{fill:#e2e2e2;opacity:0.15;}.cls-20{fill:#e0e0e0;opacity:0.16;}.cls-21{fill:#dedede;opacity:0.17;}.cls-22{fill:#dcdcdc;opacity:0.18;}.cls-23{fill:#dadada;opacity:0.19;}.cls-24{fill:#d8d8d8;opacity:0.2;}.cls-25{fill:#d7d6d6;opacity:0.21;}.cls-26{fill:#d5d5d4;opacity:0.22;}.cls-27{fill:#d3d3d2;opacity:0.23;}.cls-28{fill:#d1d1d0;opacity:0.24;}.cls-29{fill:#cfcfcf;opacity:0.25;}.cls-30{fill:#cdcdcd;opacity:0.26;}.cls-31{fill:#cbcbcb;opacity:0.27;}.cls-32{fill:#c9c9c9;opacity:0.28;}.cls-33{fill:#c7c7c7;opacity:0.29;}.cls-34{fill:#c5c5c5;opacity:0.3;}.cls-35{fill:#c3c3c3;opacity:0.31;}.cls-36{fill:#c1c1c1;opacity:0.32;}.cls-37{fill:#bfbfbf;opacity:0.33;}.cls-38{fill:#bdbdbd;opacity:0.34;}.cls-39{fill:#bcbbbb;opacity:0.35;}.cls-40{fill:#babab9;opacity:0.36;}.cls-41{fill:#b8b8b7;opacity:0.37;}.cls-42{fill:#b6b6b5;opacity:0.38;}.cls-43{fill:#b4b4b3;opacity:0.39;}.cls-44{fill:#b2b2b1;opacity:0.4;}.cls-45{fill:#b0b0b0;opacity:0.41;}.cls-46{fill:#aeaeae;opacity:0.42;}.cls-47{fill:#acacac;opacity:0.43;}.cls-48{fill:#aaa;opacity:0.44;}.cls-49{fill:#a8a8a8;opacity:0.45;}.cls-50{fill:#a6a6a6;opacity:0.46;}.cls-51{fill:#a4a4a4;opacity:0.47;}.cls-52{fill:#a3a2a2;opacity:0.48;}.cls-53{fill:#a1a0a0;opacity:0.49;}.cls-54{fill:#9f9f9e;opacity:0.5;}.cls-55{fill:#9d9d9c;opacity:0.5;}.cls-56{fill:#9b9b9a;opacity:0.51;}.cls-57{fill:#999998;opacity:0.52;}.cls-58{fill:#979796;opacity:0.53;}.cls-59{fill:#959594;opacity:0.54;}.cls-60{fill:#939392;opacity:0.55;}.cls-61{fill:#919191;opacity:0.56;}.cls-62{fill:#8f8f8f;opacity:0.57;}.cls-63{fill:#8d8d8d;opacity:0.58;}.cls-64{fill:#8b8b8b;opacity:0.59;}.cls-65{fill:#898989;opacity:0.6;}.cls-66{fill:#888787;opacity:0.61;}.cls-67{fill:#868585;opacity:0.62;}.cls-68{fill:#848383;opacity:0.63;}.cls-69{fill:#828281;opacity:0.64;}.cls-70{fill:#80807f;opacity:0.65;}.cls-71{fill:#7e7e7d;opacity:0.66;}.cls-72{fill:#7c7c7b;opacity:0.67;}.cls-73{fill:#7a7a79;opacity:0.68;}.cls-74{fill:#787877;opacity:0.69;}.cls-75{fill:#767675;opacity:0.7;}.cls-76{fill:#747473;opacity:0.71;}.cls-77{fill:#727272;opacity:0.72;}.cls-78{fill:#707070;opacity:0.73;}.cls-79{fill:#6e6e6e;opacity:0.74;}.cls-80{fill:#6d6c6c;opacity:0.75;}.cls-81{fill:#6b6a6a;opacity:0.76;}.cls-82{fill:#696868;opacity:0.77;}.cls-83{fill:#676766;opacity:0.78;}.cls-84{fill:#656564;opacity:0.79;}.cls-85{fill:#636362;opacity:0.8;}.cls-86{fill:#616160;opacity:0.81;}.cls-87{fill:#5f5f5e;opacity:0.82;}.cls-88{fill:#5d5d5c;opacity:0.83;}.cls-89{fill:#5b5b5a;opacity:0.84;}.cls-90{fill:#595958;opacity:0.85;}.cls-91{fill:#575756;opacity:0.86;}.cls-92{fill:#555554;opacity:0.87;}.cls-93{fill:#535352;opacity:0.88;}.cls-94{fill:#525151;opacity:0.89;}.cls-95{fill:#504f4f;opacity:0.9;}.cls-96{fill:#4e4d4d;opacity:0.91;}.cls-97{fill:#4c4c4b;opacity:0.92;}.cls-98{fill:#4a4a49;opacity:0.93;}.cls-99{fill:#484847;opacity:0.94;}.cls-100{fill:#464645;opacity:0.95;}.cls-101{fill:#444443;opacity:0.96;}.cls-102{fill:#424241;opacity:0.97;}.cls-103{fill:#40403f;opacity:0.98;}.cls-104{fill:#3e3e3d;opacity:0.99;}.cls-105{fill:#1a1a1a;}.cls-106{fill:#333;}.cls-107{clip-path:url(#clip-path);}.cls-108{fill:#4f4f4f;}.cls-109{fill:#858585;}</style><clipPath id="clip-path" transform="translate(-853.81 -677.64)"><path id="SVGID" class="cls-1" d="M903.73,679.22a4.83,4.83,0,0,1,4.83,4.83l.08,39.11a4.82,4.82,0,0,1-4.82,4.82l-39.1,0a4.85,4.85,0,0,1-4.84-4.83L859.81,684a4.81,4.81,0,0,1,4.81-4.82Z"/></clipPath></defs><g class="cls-2"><g id="Capa_1" data-name="Capa 1"><g class="cls-3"><path class="cls-4" d="M903.73,679.24a4.83,4.83,0,0,1,4.83,4.83l.08,45.11a4.82,4.82,0,0,1-4.82,4.82l-45.1,0a4.85,4.85,0,0,1-4.84-4.83L853.81,684a4.79,4.79,0,0,1,4.81-4.82Z" transform="translate(-853.81 -677.64)"/><path class="cls-5" d="M903.73,679.24a4.83,4.83,0,0,1,4.83,4.83l.08,45a4.82,4.82,0,0,1-4.82,4.82l-45,0a4.85,4.85,0,0,1-4.84-4.83L853.87,684a4.79,4.79,0,0,1,4.81-4.82Z" transform="translate(-853.81 -677.64)"/><path class="cls-6" d="M903.73,679.24a4.83,4.83,0,0,1,4.83,4.83l.08,45a4.83,4.83,0,0,1-4.82,4.83l-45,0A4.85,4.85,0,0,1,854,729l-.07-45a4.79,4.79,0,0,1,4.81-4.82Z" transform="translate(-853.81 -677.64)"/><path class="cls-7" d="M903.73,679.24a4.83,4.83,0,0,1,4.83,4.83l.08,44.93a4.83,4.83,0,0,1-4.82,4.83l-44.92-.05a4.85,4.85,0,0,1-4.84-4.83L854,684a4.79,4.79,0,0,1,4.81-4.82Z" transform="translate(-853.81 -677.64)"/><path class="cls-8" d="M903.73,679.24a4.83,4.83,0,0,1,4.83,4.83l.08,44.87a4.83,4.83,0,0,1-4.82,4.83l-44.86,0a4.85,4.85,0,0,1-4.84-4.83L854.05,684a4.79,4.79,0,0,1,4.81-4.82Z" transform="translate(-853.81 -677.64)"/><path class="cls-9" d="M903.73,679.24a4.83,4.83,0,0,1,4.83,4.83l.08,44.81a4.82,4.82,0,0,1-4.82,4.83l-44.8-.05a4.85,4.85,0,0,1-4.84-4.83L854.1,684a4.8,4.8,0,0,1,4.82-4.82Z" transform="translate(-853.81 -677.64)"/><path class="cls-10" d="M903.73,679.24a4.83,4.83,0,0,1,4.83,4.83l.08,44.76a4.82,4.82,0,0,1-4.82,4.82l-44.75,0a4.85,4.85,0,0,1-4.83-4.83L854.16,684A4.8,4.8,0,0,1,859,679.2Z" transform="translate(-853.81 -677.64)"/><path class="cls-11" d="M903.73,679.24a4.83,4.83,0,0,1,4.83,4.83l.08,44.7a4.82,4.82,0,0,1-4.82,4.82l-44.69-.05a4.85,4.85,0,0,1-4.83-4.83L854.22,684A4.8,4.8,0,0,1,859,679.2Z" transform="translate(-853.81 -677.64)"/><path class="cls-12" d="M903.73,679.24a4.83,4.83,0,0,1,4.83,4.83l.08,44.64a4.82,4.82,0,0,1-4.82,4.82l-44.63,0a4.85,4.85,0,0,1-4.83-4.83L854.28,684a4.8,4.8,0,0,1,4.82-4.82Z" transform="translate(-853.81 -677.64)"/><path class="cls-13" d="M903.73,679.24a4.83,4.83,0,0,1,4.83,4.83l.08,44.58a4.82,4.82,0,0,1-4.82,4.82l-44.57-.05a4.83,4.83,0,0,1-4.83-4.83L854.34,684a4.8,4.8,0,0,1,4.82-4.82Z" transform="translate(-853.81 -677.64)"/><path class="cls-14" d="M903.73,679.24a4.83,4.83,0,0,1,4.83,4.83l.08,44.52a4.82,4.82,0,0,1-4.82,4.82l-44.51,0a4.85,4.85,0,0,1-4.83-4.84L854.4,684a4.8,4.8,0,0,1,4.82-4.82Z" transform="translate(-853.81 -677.64)"/><path class="cls-15" d="M903.73,679.24a4.83,4.83,0,0,1,4.83,4.83l.08,44.46a4.82,4.82,0,0,1-4.82,4.82l-44.45,0a4.85,4.85,0,0,1-4.83-4.84L854.46,684a4.8,4.8,0,0,1,4.82-4.82Z" transform="translate(-853.81 -677.64)"/><path class="cls-16" d="M903.73,679.24a4.83,4.83,0,0,1,4.83,4.83l.08,44.4a4.82,4.82,0,0,1-4.82,4.82l-44.39,0a4.85,4.85,0,0,1-4.83-4.84L854.52,684a4.8,4.8,0,0,1,4.82-4.82Z" transform="translate(-853.81 -677.64)"/><path class="cls-17" d="M903.73,679.24a4.83,4.83,0,0,1,4.83,4.83l.08,44.34a4.82,4.82,0,0,1-4.82,4.82l-44.33,0a4.84,4.84,0,0,1-4.83-4.83L854.58,684a4.8,4.8,0,0,1,4.82-4.82Z" transform="translate(-853.81 -677.64)"/><path class="cls-18" d="M903.73,679.24a4.83,4.83,0,0,1,4.83,4.83l.08,44.28a4.82,4.82,0,0,1-4.82,4.82l-44.27,0a4.84,4.84,0,0,1-4.83-4.83L854.64,684a4.8,4.8,0,0,1,4.82-4.82Z" transform="translate(-853.81 -677.64)"/><path class="cls-19" d="M903.73,679.24a4.83,4.83,0,0,1,4.83,4.83l.08,44.22a4.82,4.82,0,0,1-4.82,4.82l-44.21,0a4.84,4.84,0,0,1-4.83-4.83L854.7,684a4.8,4.8,0,0,1,4.82-4.82Z" transform="translate(-853.81 -677.64)"/><path class="cls-20" d="M903.73,679.24a4.83,4.83,0,0,1,4.83,4.83l.08,44.16a4.82,4.82,0,0,1-4.82,4.82l-44.15,0a4.85,4.85,0,0,1-4.84-4.83L854.76,684a4.79,4.79,0,0,1,4.81-4.82Z" transform="translate(-853.81 -677.64)"/><path class="cls-21" d="M903.73,679.24a4.83,4.83,0,0,1,4.83,4.83l.08,44.1a4.82,4.82,0,0,1-4.82,4.82l-44.09,0a4.85,4.85,0,0,1-4.84-4.83l-.07-44.1a4.79,4.79,0,0,1,4.81-4.82Z" transform="translate(-853.81 -677.64)"/><path class="cls-22" d="M903.73,679.24a4.83,4.83,0,0,1,4.83,4.83l.08,44a4.82,4.82,0,0,1-4.82,4.82l-44,0a4.85,4.85,0,0,1-4.84-4.83l-.07-44a4.79,4.79,0,0,1,4.81-4.82Z" transform="translate(-853.81 -677.64)"/><path class="cls-23" d="M903.73,679.24a4.83,4.83,0,0,1,4.83,4.83l.08,44a4.83,4.83,0,0,1-4.82,4.83l-44,0A4.85,4.85,0,0,1,855,728l-.07-44a4.79,4.79,0,0,1,4.81-4.82Z" transform="translate(-853.81 -677.64)"/><path class="cls-24" d="M903.73,679.24a4.83,4.83,0,0,1,4.83,4.83l.08,43.92a4.83,4.83,0,0,1-4.82,4.83l-43.91-.05a4.85,4.85,0,0,1-4.84-4.83L855,684a4.79,4.79,0,0,1,4.81-4.82Z" transform="translate(-853.81 -677.64)"/><path class="cls-25" d="M903.73,679.24a4.83,4.83,0,0,1,4.83,4.83l.08,43.86a4.83,4.83,0,0,1-4.82,4.83l-43.85,0a4.85,4.85,0,0,1-4.84-4.83L855.06,684a4.79,4.79,0,0,1,4.81-4.82Z" transform="translate(-853.81 -677.64)"/><path class="cls-26" d="M903.73,679.24a4.83,4.83,0,0,1,4.83,4.83l.08,43.81a4.82,4.82,0,0,1-4.82,4.82l-43.8-.05a4.85,4.85,0,0,1-4.83-4.83l-.08-43.8a4.8,4.8,0,0,1,4.82-4.82Z" transform="translate(-853.81 -677.64)"/><path class="cls-27" d="M903.73,679.24a4.83,4.83,0,0,1,4.83,4.83l.08,43.75a4.82,4.82,0,0,1-4.82,4.82l-43.74,0a4.85,4.85,0,0,1-4.83-4.83L855.17,684A4.8,4.8,0,0,1,860,679.2Z" transform="translate(-853.81 -677.64)"/><path class="cls-28" d="M903.73,679.24a4.83,4.83,0,0,1,4.83,4.83l.08,43.69a4.82,4.82,0,0,1-4.82,4.82l-43.68-.05a4.85,4.85,0,0,1-4.83-4.83L855.23,684a4.8,4.8,0,0,1,4.82-4.82Z" transform="translate(-853.81 -677.64)"/><path class="cls-29" d="M903.73,679.24a4.83,4.83,0,0,1,4.83,4.83l.08,43.63a4.82,4.82,0,0,1-4.82,4.82l-43.62,0a4.85,4.85,0,0,1-4.83-4.83L855.29,684a4.8,4.8,0,0,1,4.82-4.82Z" transform="translate(-853.81 -677.64)"/><path class="cls-30" d="M903.73,679.24a4.83,4.83,0,0,1,4.83,4.83l.08,43.57a4.82,4.82,0,0,1-4.82,4.82l-43.56-.05a4.83,4.83,0,0,1-4.83-4.83L855.35,684a4.8,4.8,0,0,1,4.82-4.82Z" transform="translate(-853.81 -677.64)"/><path class="cls-31" d="M903.73,679.24a4.83,4.83,0,0,1,4.83,4.83l.08,43.51a4.82,4.82,0,0,1-4.82,4.82l-43.5,0a4.85,4.85,0,0,1-4.83-4.84l-.08-43.5a4.8,4.8,0,0,1,4.82-4.82Z" transform="translate(-853.81 -677.64)"/><path class="cls-32" d="M903.73,679.24a4.83,4.83,0,0,1,4.83,4.83l.08,43.45a4.82,4.82,0,0,1-4.82,4.82l-43.44,0a4.85,4.85,0,0,1-4.83-4.84L855.47,684a4.8,4.8,0,0,1,4.82-4.82Z" transform="translate(-853.81 -677.64)"/><path class="cls-33" d="M903.73,679.24a4.83,4.83,0,0,1,4.83,4.83l.08,43.39a4.82,4.82,0,0,1-4.82,4.82l-43.38,0a4.85,4.85,0,0,1-4.83-4.84L855.53,684a4.8,4.8,0,0,1,4.82-4.82Z" transform="translate(-853.81 -677.64)"/><path class="cls-34" d="M903.73,679.24a4.83,4.83,0,0,1,4.83,4.83l.08,43.33a4.82,4.82,0,0,1-4.82,4.82l-43.32,0a4.84,4.84,0,0,1-4.83-4.83L855.59,684a4.8,4.8,0,0,1,4.82-4.82Z" transform="translate(-853.81 -677.64)"/><path class="cls-35" d="M903.73,679.24a4.83,4.83,0,0,1,4.83,4.83l.08,43.27a4.82,4.82,0,0,1-4.82,4.82l-43.26,0a4.84,4.84,0,0,1-4.83-4.83L855.65,684a4.8,4.8,0,0,1,4.82-4.82Z" transform="translate(-853.81 -677.64)"/><path class="cls-36" d="M903.73,679.24a4.83,4.83,0,0,1,4.83,4.83l.08,43.21a4.82,4.82,0,0,1-4.82,4.82l-43.2,0a4.84,4.84,0,0,1-4.83-4.83L855.71,684a4.8,4.8,0,0,1,4.82-4.82Z" transform="translate(-853.81 -677.64)"/><path class="cls-37" d="M903.73,679.24a4.83,4.83,0,0,1,4.83,4.83l.08,43.15a4.82,4.82,0,0,1-4.82,4.82l-43.14,0a4.85,4.85,0,0,1-4.84-4.83L855.77,684a4.79,4.79,0,0,1,4.81-4.82Z" transform="translate(-853.81 -677.64)"/><path class="cls-38" d="M903.73,679.24a4.83,4.83,0,0,1,4.83,4.83l.08,43.09a4.82,4.82,0,0,1-4.82,4.82l-43.08,0a4.85,4.85,0,0,1-4.84-4.83L855.83,684a4.79,4.79,0,0,1,4.81-4.82Z" transform="translate(-853.81 -677.64)"/><path class="cls-39" d="M903.73,679.24a4.83,4.83,0,0,1,4.83,4.83l.08,43a4.83,4.83,0,0,1-4.82,4.83l-43,0a4.85,4.85,0,0,1-4.84-4.83l-.07-43a4.79,4.79,0,0,1,4.81-4.82Z" transform="translate(-853.81 -677.64)"/><path class="cls-40" d="M903.73,679.24a4.83,4.83,0,0,1,4.83,4.83l.08,43a4.83,4.83,0,0,1-4.82,4.83l-43,0A4.85,4.85,0,0,1,856,727L856,684a4.79,4.79,0,0,1,4.81-4.82Z" transform="translate(-853.81 -677.64)"/><path class="cls-41" d="M903.73,679.24a4.83,4.83,0,0,1,4.83,4.83l.08,42.91a4.83,4.83,0,0,1-4.82,4.83l-42.9,0a4.85,4.85,0,0,1-4.84-4.83L856,684a4.79,4.79,0,0,1,4.81-4.82Z" transform="translate(-853.81 -677.64)"/><path class="cls-42" d="M903.73,679.24a4.83,4.83,0,0,1,4.83,4.83l.08,42.85a4.83,4.83,0,0,1-4.82,4.83l-42.84,0a4.85,4.85,0,0,1-4.84-4.83L856.07,684a4.79,4.79,0,0,1,4.81-4.82Z" transform="translate(-853.81 -677.64)"/><path class="cls-43" d="M903.73,679.24a4.83,4.83,0,0,1,4.83,4.83l.08,42.8a4.82,4.82,0,0,1-4.82,4.82L861,731.64a4.85,4.85,0,0,1-4.83-4.83L856.12,684a4.8,4.8,0,0,1,4.82-4.82Z" transform="translate(-853.81 -677.64)"/><path class="cls-44" d="M903.73,679.24a4.83,4.83,0,0,1,4.83,4.83l.08,42.74a4.82,4.82,0,0,1-4.82,4.82l-42.73,0a4.85,4.85,0,0,1-4.83-4.83L856.18,684A4.8,4.8,0,0,1,861,679.2Z" transform="translate(-853.81 -677.64)"/><path class="cls-45" d="M903.73,679.24a4.83,4.83,0,0,1,4.83,4.83l.08,42.68a4.82,4.82,0,0,1-4.82,4.82l-42.67-.05a4.85,4.85,0,0,1-4.83-4.83L856.24,684a4.8,4.8,0,0,1,4.82-4.82Z" transform="translate(-853.81 -677.64)"/><path class="cls-46" d="M903.73,679.24a4.83,4.83,0,0,1,4.83,4.83l.08,42.62a4.82,4.82,0,0,1-4.82,4.82l-42.61,0a4.84,4.84,0,0,1-4.83-4.83L856.3,684a4.8,4.8,0,0,1,4.82-4.82Z" transform="translate(-853.81 -677.64)"/><path class="cls-47" d="M903.73,679.24a4.83,4.83,0,0,1,4.83,4.83l.08,42.56a4.82,4.82,0,0,1-4.82,4.82l-42.55-.05a4.83,4.83,0,0,1-4.83-4.83L856.36,684a4.8,4.8,0,0,1,4.82-4.82Z" transform="translate(-853.81 -677.64)"/><path class="cls-48" d="M903.73,679.24a4.83,4.83,0,0,1,4.83,4.83l.08,42.5a4.82,4.82,0,0,1-4.82,4.82l-42.49,0a4.85,4.85,0,0,1-4.83-4.84L856.42,684a4.8,4.8,0,0,1,4.82-4.82Z" transform="translate(-853.81 -677.64)"/><path class="cls-49" d="M903.73,679.24a4.83,4.83,0,0,1,4.83,4.83l.08,42.44a4.82,4.82,0,0,1-4.82,4.82l-42.43,0a4.85,4.85,0,0,1-4.83-4.84L856.48,684a4.8,4.8,0,0,1,4.82-4.82Z" transform="translate(-853.81 -677.64)"/><path class="cls-50" d="M903.73,679.24a4.83,4.83,0,0,1,4.83,4.83l.08,42.38a4.82,4.82,0,0,1-4.82,4.82l-42.37,0a4.85,4.85,0,0,1-4.83-4.84L856.54,684a4.8,4.8,0,0,1,4.82-4.82Z" transform="translate(-853.81 -677.64)"/><path class="cls-51" d="M903.73,679.24a4.83,4.83,0,0,1,4.83,4.83l.08,42.32a4.82,4.82,0,0,1-4.82,4.82l-42.31,0a4.84,4.84,0,0,1-4.83-4.83L856.6,684a4.8,4.8,0,0,1,4.82-4.82Z" transform="translate(-853.81 -677.64)"/><path class="cls-52" d="M903.73,679.24a4.83,4.83,0,0,1,4.83,4.83l.08,42.26a4.82,4.82,0,0,1-4.82,4.82l-42.25,0a4.84,4.84,0,0,1-4.83-4.83L856.66,684a4.8,4.8,0,0,1,4.82-4.82Z" transform="translate(-853.81 -677.64)"/><path class="cls-53" d="M903.73,679.24a4.83,4.83,0,0,1,4.83,4.83l.08,42.2a4.82,4.82,0,0,1-4.82,4.82l-42.19,0a4.84,4.84,0,0,1-4.83-4.83l-.08-42.2a4.8,4.8,0,0,1,4.82-4.82Z" transform="translate(-853.81 -677.64)"/><path class="cls-54" d="M903.73,679.24a4.83,4.83,0,0,1,4.83,4.83l.08,42.14a4.82,4.82,0,0,1-4.82,4.82l-42.13,0a4.85,4.85,0,0,1-4.84-4.83L856.78,684a4.79,4.79,0,0,1,4.81-4.82Z" transform="translate(-853.81 -677.64)"/><path class="cls-55" d="M903.73,679.24a4.83,4.83,0,0,1,4.83,4.83l.08,42.08a4.82,4.82,0,0,1-4.82,4.82l-42.07,0a4.85,4.85,0,0,1-4.84-4.83L856.84,684a4.79,4.79,0,0,1,4.81-4.82Z" transform="translate(-853.81 -677.64)"/><path class="cls-56" d="M903.73,679.24a4.83,4.83,0,0,1,4.83,4.83l.08,42a4.83,4.83,0,0,1-4.82,4.83l-42,0A4.85,4.85,0,0,1,857,726l-.07-42a4.79,4.79,0,0,1,4.81-4.82Z" transform="translate(-853.81 -677.64)"/><path class="cls-57" d="M903.73,679.24a4.83,4.83,0,0,1,4.83,4.83l.08,42a4.83,4.83,0,0,1-4.82,4.83l-42-.05A4.85,4.85,0,0,1,857,726L857,684a4.79,4.79,0,0,1,4.81-4.82Z" transform="translate(-853.81 -677.64)"/><path class="cls-58" d="M903.73,679.24a4.83,4.83,0,0,1,4.83,4.83l.08,41.9a4.83,4.83,0,0,1-4.82,4.83l-41.89,0a4.85,4.85,0,0,1-4.84-4.83L857,684a4.79,4.79,0,0,1,4.81-4.82Z" transform="translate(-853.81 -677.64)"/><path class="cls-59" d="M903.73,679.24a4.83,4.83,0,0,1,4.83,4.83l.08,41.84a4.83,4.83,0,0,1-4.82,4.83l-41.83,0a4.85,4.85,0,0,1-4.84-4.83L857.08,684a4.79,4.79,0,0,1,4.81-4.82Z" transform="translate(-853.81 -677.64)"/><path class="cls-60" d="M903.73,679.24a4.83,4.83,0,0,1,4.83,4.83l.08,41.79a4.82,4.82,0,0,1-4.82,4.82l-41.78,0a4.85,4.85,0,0,1-4.83-4.83L857.13,684A4.8,4.8,0,0,1,862,679.2Z" transform="translate(-853.81 -677.64)"/><path class="cls-61" d="M903.73,679.24a4.83,4.83,0,0,1,4.83,4.83l.08,41.73a4.82,4.82,0,0,1-4.82,4.82l-41.72,0a4.85,4.85,0,0,1-4.83-4.83L857.19,684A4.8,4.8,0,0,1,862,679.2Z" transform="translate(-853.81 -677.64)"/><path class="cls-62" d="M903.73,679.24a4.83,4.83,0,0,1,4.83,4.83l.08,41.67a4.82,4.82,0,0,1-4.82,4.82l-41.66,0a4.85,4.85,0,0,1-4.83-4.83L857.25,684a4.8,4.8,0,0,1,4.82-4.82Z" transform="translate(-853.81 -677.64)"/><path class="cls-63" d="M903.73,679.24a4.83,4.83,0,0,1,4.83,4.83l.08,41.61a4.82,4.82,0,0,1-4.82,4.82l-41.6,0a4.84,4.84,0,0,1-4.83-4.83l-.08-41.6a4.8,4.8,0,0,1,4.82-4.82Z" transform="translate(-853.81 -677.64)"/><path class="cls-64" d="M903.73,679.24a4.83,4.83,0,0,1,4.83,4.83l.08,41.55a4.82,4.82,0,0,1-4.82,4.82l-41.54,0a4.85,4.85,0,0,1-4.83-4.84L857.37,684a4.8,4.8,0,0,1,4.82-4.82Z" transform="translate(-853.81 -677.64)"/><path class="cls-65" d="M903.73,679.24a4.83,4.83,0,0,1,4.83,4.83l.08,41.49a4.82,4.82,0,0,1-4.82,4.82l-41.48,0a4.85,4.85,0,0,1-4.83-4.84L857.43,684a4.8,4.8,0,0,1,4.82-4.82Z" transform="translate(-853.81 -677.64)"/><path class="cls-66" d="M903.73,679.24a4.83,4.83,0,0,1,4.83,4.83l.08,41.43a4.82,4.82,0,0,1-4.82,4.82l-41.42,0a4.85,4.85,0,0,1-4.83-4.84L857.49,684a4.8,4.8,0,0,1,4.82-4.82Z" transform="translate(-853.81 -677.64)"/><path class="cls-67" d="M903.73,679.24a4.83,4.83,0,0,1,4.83,4.83l.08,41.37a4.82,4.82,0,0,1-4.82,4.82l-41.36,0a4.85,4.85,0,0,1-4.83-4.84L857.55,684a4.8,4.8,0,0,1,4.82-4.82Z" transform="translate(-853.81 -677.64)"/><path class="cls-68" d="M903.73,679.24a4.83,4.83,0,0,1,4.83,4.83l.08,41.31a4.82,4.82,0,0,1-4.82,4.82l-41.3,0a4.84,4.84,0,0,1-4.83-4.83L857.61,684a4.8,4.8,0,0,1,4.82-4.82Z" transform="translate(-853.81 -677.64)"/><path class="cls-69" d="M903.73,679.24a4.83,4.83,0,0,1,4.83,4.83l.08,41.25a4.82,4.82,0,0,1-4.82,4.82l-41.24,0a4.84,4.84,0,0,1-4.83-4.83L857.67,684a4.8,4.8,0,0,1,4.82-4.82Z" transform="translate(-853.81 -677.64)"/><path class="cls-70" d="M903.73,679.24a4.83,4.83,0,0,1,4.83,4.83l.08,41.19a4.82,4.82,0,0,1-4.82,4.82l-41.18,0a4.85,4.85,0,0,1-4.84-4.83L857.73,684a4.8,4.8,0,0,1,4.82-4.82Z" transform="translate(-853.81 -677.64)"/><path class="cls-71" d="M903.73,679.24a4.83,4.83,0,0,1,4.83,4.83l.08,41.13a4.82,4.82,0,0,1-4.82,4.82l-41.12,0a4.85,4.85,0,0,1-4.84-4.83L857.79,684a4.79,4.79,0,0,1,4.81-4.82Z" transform="translate(-853.81 -677.64)"/><path class="cls-72" d="M903.73,679.24a4.83,4.83,0,0,1,4.83,4.83l.08,41.07a4.82,4.82,0,0,1-4.82,4.82l-41.06,0a4.85,4.85,0,0,1-4.84-4.83L857.85,684a4.79,4.79,0,0,1,4.81-4.82Z" transform="translate(-853.81 -677.64)"/><path class="cls-73" d="M903.73,679.24a4.83,4.83,0,0,1,4.83,4.83l.08,41a4.83,4.83,0,0,1-4.82,4.83l-41,0A4.85,4.85,0,0,1,858,725l-.07-41a4.79,4.79,0,0,1,4.81-4.82Z" transform="translate(-853.81 -677.64)"/><path class="cls-74" d="M903.73,679.24a4.83,4.83,0,0,1,4.83,4.83l.08,40.95a4.83,4.83,0,0,1-4.82,4.83l-40.94-.05A4.85,4.85,0,0,1,858,725L858,684a4.79,4.79,0,0,1,4.81-4.82Z" transform="translate(-853.81 -677.64)"/><path class="cls-75" d="M903.73,679.24a4.83,4.83,0,0,1,4.83,4.83l.08,40.89a4.83,4.83,0,0,1-4.82,4.83l-40.88,0a4.85,4.85,0,0,1-4.84-4.83L858,684a4.79,4.79,0,0,1,4.81-4.82Z" transform="translate(-853.81 -677.64)"/><path class="cls-76" d="M903.73,679.24a4.83,4.83,0,0,1,4.83,4.83l.08,40.83a4.83,4.83,0,0,1-4.82,4.83L863,729.68a4.85,4.85,0,0,1-4.84-4.83L858.09,684a4.79,4.79,0,0,1,4.81-4.82Z" transform="translate(-853.81 -677.64)"/><path class="cls-77" d="M903.73,679.24a4.83,4.83,0,0,1,4.83,4.83l.08,40.78a4.82,4.82,0,0,1-4.82,4.82l-40.77,0a4.85,4.85,0,0,1-4.83-4.83L858.14,684A4.8,4.8,0,0,1,863,679.2Z" transform="translate(-853.81 -677.64)"/><path class="cls-78" d="M903.73,679.24a4.83,4.83,0,0,1,4.83,4.83l.08,40.72a4.82,4.82,0,0,1-4.82,4.82l-40.71-.05a4.85,4.85,0,0,1-4.83-4.83L858.2,684A4.8,4.8,0,0,1,863,679.2Z" transform="translate(-853.81 -677.64)"/><path class="cls-79" d="M903.73,679.24a4.83,4.83,0,0,1,4.83,4.83l.08,40.66a4.82,4.82,0,0,1-4.82,4.82l-40.65,0a4.85,4.85,0,0,1-4.83-4.83L858.26,684a4.8,4.8,0,0,1,4.82-4.82Z" transform="translate(-853.81 -677.64)"/><path class="cls-80" d="M903.73,679.24a4.83,4.83,0,0,1,4.83,4.83l.08,40.6a4.82,4.82,0,0,1-4.82,4.82l-40.59,0a4.83,4.83,0,0,1-4.83-4.83L858.32,684a4.8,4.8,0,0,1,4.82-4.82Z" transform="translate(-853.81 -677.64)"/><path class="cls-81" d="M903.73,679.24a4.83,4.83,0,0,1,4.83,4.83l.08,40.54a4.82,4.82,0,0,1-4.82,4.82l-40.53,0a4.85,4.85,0,0,1-4.83-4.84L858.38,684a4.8,4.8,0,0,1,4.82-4.82Z" transform="translate(-853.81 -677.64)"/><path class="cls-82" d="M903.73,679.24a4.83,4.83,0,0,1,4.83,4.83l.08,40.48a4.82,4.82,0,0,1-4.82,4.82l-40.47,0a4.85,4.85,0,0,1-4.83-4.84L858.44,684a4.8,4.8,0,0,1,4.82-4.82Z" transform="translate(-853.81 -677.64)"/><path class="cls-83" d="M903.73,679.24a4.83,4.83,0,0,1,4.83,4.83l.08,40.42a4.82,4.82,0,0,1-4.82,4.82l-40.41,0a4.85,4.85,0,0,1-4.83-4.84L858.5,684a4.8,4.8,0,0,1,4.82-4.82Z" transform="translate(-853.81 -677.64)"/><path class="cls-84" d="M903.73,679.24a4.83,4.83,0,0,1,4.83,4.83l.08,40.36a4.82,4.82,0,0,1-4.82,4.82l-40.35,0a4.84,4.84,0,0,1-4.83-4.84L858.56,684a4.8,4.8,0,0,1,4.82-4.82Z" transform="translate(-853.81 -677.64)"/><path class="cls-85" d="M903.73,679.24a4.83,4.83,0,0,1,4.83,4.83l.08,40.3a4.82,4.82,0,0,1-4.82,4.82l-40.29,0a4.84,4.84,0,0,1-4.83-4.83l-.08-40.3a4.8,4.8,0,0,1,4.82-4.82Z" transform="translate(-853.81 -677.64)"/><path class="cls-86" d="M903.73,679.24a4.83,4.83,0,0,1,4.83,4.83l.08,40.24a4.82,4.82,0,0,1-4.82,4.82l-40.23,0a4.84,4.84,0,0,1-4.83-4.83L858.68,684a4.8,4.8,0,0,1,4.82-4.82Z" transform="translate(-853.81 -677.64)"/><path class="cls-87" d="M903.73,679.24a4.83,4.83,0,0,1,4.83,4.83l.08,40.18a4.82,4.82,0,0,1-4.82,4.82l-40.17,0a4.85,4.85,0,0,1-4.84-4.83L858.74,684a4.8,4.8,0,0,1,4.82-4.82Z" transform="translate(-853.81 -677.64)"/><path class="cls-88" d="M903.73,679.24a4.83,4.83,0,0,1,4.83,4.83l.08,40.12a4.82,4.82,0,0,1-4.82,4.82l-40.11,0a4.85,4.85,0,0,1-4.84-4.83L858.8,684a4.79,4.79,0,0,1,4.81-4.82Z" transform="translate(-853.81 -677.64)"/><path class="cls-89" d="M903.73,679.24a4.83,4.83,0,0,1,4.83,4.83l.08,40.06a4.82,4.82,0,0,1-4.82,4.82l-40.05,0a4.85,4.85,0,0,1-4.84-4.83L858.86,684a4.79,4.79,0,0,1,4.81-4.82Z" transform="translate(-853.81 -677.64)"/><path class="cls-90" d="M903.73,679.24a4.83,4.83,0,0,1,4.83,4.83l.08,40a4.83,4.83,0,0,1-4.82,4.83l-40,0A4.85,4.85,0,0,1,859,724l-.07-40a4.79,4.79,0,0,1,4.81-4.82Z" transform="translate(-853.81 -677.64)"/><path class="cls-91" d="M903.73,679.24a4.83,4.83,0,0,1,4.83,4.83l.08,39.94a4.83,4.83,0,0,1-4.82,4.83l-39.93-.05a4.85,4.85,0,0,1-4.84-4.83L859,684a4.79,4.79,0,0,1,4.81-4.82Z" transform="translate(-853.81 -677.64)"/><path class="cls-92" d="M903.73,679.24a4.83,4.83,0,0,1,4.83,4.83l.08,39.88a4.83,4.83,0,0,1-4.82,4.83l-39.87,0a4.85,4.85,0,0,1-4.84-4.83L859,684a4.79,4.79,0,0,1,4.81-4.82Z" transform="translate(-853.81 -677.64)"/><path class="cls-93" d="M903.73,679.24a4.83,4.83,0,0,1,4.83,4.83l.08,39.82a4.82,4.82,0,0,1-4.82,4.83L864,728.67a4.85,4.85,0,0,1-4.84-4.83L859.1,684a4.79,4.79,0,0,1,4.81-4.82Z" transform="translate(-853.81 -677.64)"/><path class="cls-94" d="M903.73,679.24a4.83,4.83,0,0,1,4.83,4.83l.08,39.77a4.82,4.82,0,0,1-4.82,4.82l-39.76,0a4.85,4.85,0,0,1-4.83-4.83L859.15,684A4.8,4.8,0,0,1,864,679.2Z" transform="translate(-853.81 -677.64)"/><path class="cls-95" d="M903.73,679.24a4.83,4.83,0,0,1,4.83,4.83l.08,39.71a4.82,4.82,0,0,1-4.82,4.82l-39.7-.05a4.85,4.85,0,0,1-4.83-4.83l-.08-39.7A4.8,4.8,0,0,1,864,679.2Z" transform="translate(-853.81 -677.64)"/><path class="cls-96" d="M903.73,679.24a4.83,4.83,0,0,1,4.83,4.83l.08,39.65a4.82,4.82,0,0,1-4.82,4.82l-39.64,0a4.85,4.85,0,0,1-4.83-4.83L859.27,684a4.8,4.8,0,0,1,4.82-4.82Z" transform="translate(-853.81 -677.64)"/><path class="cls-97" d="M903.73,679.24a4.83,4.83,0,0,1,4.83,4.83l.08,39.59a4.82,4.82,0,0,1-4.82,4.82l-39.58-.05a4.83,4.83,0,0,1-4.83-4.83L859.33,684a4.8,4.8,0,0,1,4.82-4.82Z" transform="translate(-853.81 -677.64)"/><path class="cls-98" d="M903.73,679.24a4.83,4.83,0,0,1,4.83,4.83l.08,39.53a4.82,4.82,0,0,1-4.82,4.82l-39.52,0a4.85,4.85,0,0,1-4.83-4.84L859.39,684a4.8,4.8,0,0,1,4.82-4.82Z" transform="translate(-853.81 -677.64)"/><path class="cls-99" d="M903.73,679.24a4.83,4.83,0,0,1,4.83,4.83l.08,39.47a4.82,4.82,0,0,1-4.82,4.82l-39.46,0a4.85,4.85,0,0,1-4.83-4.84L859.45,684a4.8,4.8,0,0,1,4.82-4.82Z" transform="translate(-853.81 -677.64)"/><path class="cls-100" d="M903.73,679.24a4.83,4.83,0,0,1,4.83,4.83l.08,39.41a4.82,4.82,0,0,1-4.82,4.82l-39.4,0a4.85,4.85,0,0,1-4.83-4.84l-.08-39.4a4.8,4.8,0,0,1,4.82-4.82Z" transform="translate(-853.81 -677.64)"/><path class="cls-101" d="M903.73,679.24a4.83,4.83,0,0,1,4.83,4.83l.08,39.35a4.82,4.82,0,0,1-4.82,4.82l-39.34,0a4.84,4.84,0,0,1-4.83-4.83L859.57,684a4.8,4.8,0,0,1,4.82-4.82Z" transform="translate(-853.81 -677.64)"/><path class="cls-102" d="M903.73,679.24a4.83,4.83,0,0,1,4.83,4.83l.08,39.29a4.82,4.82,0,0,1-4.82,4.82l-39.28,0a4.84,4.84,0,0,1-4.83-4.83L859.63,684a4.8,4.8,0,0,1,4.82-4.82Z" transform="translate(-853.81 -677.64)"/><path class="cls-103" d="M903.73,679.24a4.83,4.83,0,0,1,4.83,4.83l.08,39.23a4.82,4.82,0,0,1-4.82,4.82l-39.22,0a4.84,4.84,0,0,1-4.83-4.83L859.69,684a4.8,4.8,0,0,1,4.82-4.82Z" transform="translate(-853.81 -677.64)"/><path class="cls-104" d="M903.73,679.24a4.83,4.83,0,0,1,4.83,4.83l.08,39.17a4.82,4.82,0,0,1-4.82,4.82l-39.16,0a4.85,4.85,0,0,1-4.84-4.83L859.75,684a4.79,4.79,0,0,1,4.81-4.82Z" transform="translate(-853.81 -677.64)"/><path class="cls-105" d="M903.73,679.24a4.83,4.83,0,0,1,4.83,4.83l.08,39.11a4.82,4.82,0,0,1-4.82,4.82l-39.1,0a4.85,4.85,0,0,1-4.84-4.83L859.81,684a4.79,4.79,0,0,1,4.81-4.82Z" transform="translate(-853.81 -677.64)"/></g><path class="cls-106" d="M903.73,679.24a4.83,4.83,0,0,1,4.83,4.83l.08,39.11a4.82,4.82,0,0,1-4.82,4.82l-39.1,0a4.85,4.85,0,0,1-4.84-4.83L859.81,684a4.79,4.79,0,0,1,4.81-4.82Z" transform="translate(-853.81 -677.64)"/><g class="cls-107"><path class="cls-108" d="M907.31,726.56l-.07-.07s0,0,0,.06-.38.1-.91.34a5,5,0,0,1-2.4.47c-2.33-.18-5.77-.36-10-.51s-9.25-.27-14.84-.36l-8.76-.1-4.63,0H864.6a3.44,3.44,0,0,1-.78-.13,3.26,3.26,0,0,1-1.38-.82,3.16,3.16,0,0,1-.83-1.36,3,3,0,0,1-.14-.79v-1.1l0-4.64-.11-8.76c-.1-5.58-.22-10.61-.37-14.83s-.33-7.66-.52-10a5,5,0,0,1,.45-2.4c.24-.54.42-.83.33-.91s-.4.07-.86.56a4.61,4.61,0,0,0-1.16,2.72c-.19,2.39-.34,5.79-.48,10s-.24,9.25-.31,14.84l-.08,8.76v5.89a6.81,6.81,0,0,0,.27,1.55,6.5,6.5,0,0,0,1.64,2.7,6.36,6.36,0,0,0,2.72,1.59,6.27,6.27,0,0,0,1.55.25h1.24l4.63,0,8.76-.08c5.58-.07,10.61-.18,14.83-.32s7.63-.3,10-.49a4.64,4.64,0,0,0,2.72-1.18c.49-.46.63-.79.56-.87Z" transform="translate(-853.81 -677.64)"/><path class="cls-109" d="M862.12,680.3a5,5,0,0,1,2.4-.46c2.33.19,5.77.36,10,.5s9.25.26,14.83.34l8.76.09,4.64,0h1.12a3.44,3.44,0,0,1,.78.13,3.36,3.36,0,0,1,1.38.82,3.33,3.33,0,0,1,.82,1.37,3,3,0,0,1,.14.79V685l0,4.63.11,8.76c.09,5.59.22,10.61.37,14.84s.33,7.65.52,10a5,5,0,0,1-.44,2.4,3.34,3.34,0,0,0-.34.85l.07.07c.12,0,.41-.15.8-.57a4.68,4.68,0,0,0,1.14-2.73c.19-2.39.35-5.79.49-10s.24-9.25.31-14.83l.07-8.76,0-4.64v-1.24a6.42,6.42,0,0,0-6.15-6.13h-1.24l-4.63,0-8.77.09c-5.58.08-10.61.2-14.83.34s-7.63.31-10,.51a4.61,4.61,0,0,0-2.72,1.16,2.07,2.07,0,0,0-.57.75l.13.12A7.78,7.78,0,0,0,862.12,680.3Z" transform="translate(-853.81 -677.64)"/></g><path class="cls-110" d="M894.23,714.26H889l-5-8.1-5,8.1h-4.86l7.1-11-6.65-10.38h5l4.62,7.71,4.52-7.71h4.9L887,703.46Z" transform="translate(-853.81 -677.64)"/><path class="cls-110" d="M901.42,688.19h-3.49v-.73l1.25-1.27a10.43,10.43,0,0,0,.73-.79,1.88,1.88,0,0,0,.25-.41,1,1,0,0,0,.07-.39.55.55,0,0,0-.17-.45.66.66,0,0,0-.44-.14,1.24,1.24,0,0,0-.56.13,3.31,3.31,0,0,0-.57.38l-.58-.68a3.84,3.84,0,0,1,.62-.45,2.07,2.07,0,0,1,.53-.19,2.51,2.51,0,0,1,.64-.07,1.77,1.77,0,0,1,.82.17,1.3,1.3,0,0,1,.56.47,1.33,1.33,0,0,1,.2.71,1.78,1.78,0,0,1-.12.65,2.47,2.47,0,0,1-.38.62,10.1,10.1,0,0,1-.89.9l-.65.61v0h2.18Z" transform="translate(-853.81 -677.64)"/><path class="cls-110" d="M905.53,687.16h-.6v1h-1v-1h-2.13v-.74L904,683.2h1v3.14h.6Zm-1.64-.82v-.85c0-.14,0-.35,0-.61a4.38,4.38,0,0,1,0-.47h0a3.2,3.2,0,0,1-.3.54l-.92,1.39Z" transform="translate(-853.81 -677.64)"/></g></g></svg>